<svg width="150" height="182" viewBox="0 0 150 182" fill="none" xmlns="http://www.w3.org/2000/svg">
<path d="M71.3087 162.651C71.3087 164.621 72.884 165.802 74.8532 165.802C76.8223 165.802 78.3976 164.227 78.3976 162.258C78.3976 160.288 76.8223 159.107 74.8532 159.107C72.884 159.501 71.3087 161.076 71.3087 162.651Z" fill="#FFAC00"/>
<path d="M149.287 76.4031C149.287 72.8586 147.712 64.1943 138.654 64.1943C133.534 64.1943 128.808 67.345 126.839 72.4648C131.565 70.1018 135.897 78.3722 122.113 78.3722C111.479 78.3722 110.298 67.345 107.935 59.4684C105.966 52.7733 100.846 48.0473 93.7569 46.8658C103.997 30.7188 94.1507 22.8422 86.2741 20.4792C78.3975 18.1162 76.4284 12.2087 76.4284 9.84576V5.90745H79.579V3.54447H76.4284V0H73.6716V3.54447H70.5209V6.30128H73.6716V9.84576C73.6716 12.2087 72.0963 17.7224 63.8258 20.4792C55.5554 23.236 45.7097 31.1126 56.3431 46.8658C49.648 48.0473 44.1343 52.7733 42.559 59.4684C39.8022 67.345 38.6207 78.3722 27.9873 78.3722C13.8094 78.3722 18.1415 69.7079 23.2613 72.4648C21.2922 67.7388 16.5662 64.1943 11.4464 64.1943C2.38833 64.1943 0.812988 73.2524 0.812988 76.4031C0.812988 91.7624 17.3539 94.5193 17.3539 106.334C17.3539 116.18 10.2649 120.118 10.2649 126.026C10.2649 129.964 13.0217 129.964 18.1415 133.508C23.2613 137.053 22.0798 139.416 25.6243 141.385C29.5626 143.748 39.8022 139.022 46.1035 144.142C57.5245 153.594 42.559 154.775 51.6171 160.683C58.3122 165.409 60.6752 159.501 63.432 159.895C66.1888 160.289 64.6135 162.652 68.5518 162.652H72.0963V165.409H65.4012C63.8259 165.409 62.6443 166.59 62.6443 168.166C62.6443 169.741 63.8259 170.922 65.4012 170.922H65.795C65.795 173.285 67.7641 175.648 70.5209 175.648C70.9148 175.648 70.9148 175.648 71.3086 175.648C71.3086 176.042 71.3086 176.436 71.3086 176.83C70.9148 179.193 72.884 181.556 75.2469 181.95C77.6099 182.343 79.9729 180.374 80.3667 178.011C80.3667 177.617 80.3667 177.617 80.3667 177.224C80.3667 176.83 80.3667 176.436 79.9729 176.042C80.3667 176.042 80.7605 176.042 80.7605 176.042C83.1235 176.042 85.4865 174.073 85.0927 171.316H85.4865C87.0618 171.316 88.2433 170.135 88.2433 168.559C88.2433 166.984 87.0618 165.803 85.4865 165.803H78.7914V163.44H82.3358C86.2741 163.44 84.6988 161.47 87.4556 160.683C90.2124 159.895 92.1816 165.803 98.8768 161.47C107.541 155.563 92.5754 153.988 104.39 144.93C110.692 139.81 120.931 144.142 124.87 142.173C128.414 140.204 127.233 137.841 132.352 134.296C137.472 130.752 140.229 131.145 140.229 126.813C140.229 121.3 133.14 116.968 133.14 107.122C132.746 94.5193 149.287 91.7624 149.287 76.4031ZM67.7641 40.9583C65.795 40.9583 65.795 39.7769 64.6135 39.7769C63.432 39.7769 63.0382 41.3522 61.4629 41.3522C59.8876 41.3522 56.7369 38.9892 56.7369 33.0817C56.7369 24.0236 68.9456 24.8113 72.8839 16.9347C72.8839 17.3285 72.4901 40.9583 67.7641 40.9583ZM88.2433 41.746C86.668 41.746 86.668 40.1707 85.0927 40.1707C83.5174 40.1707 83.9112 41.3522 81.942 41.3522C77.2161 41.3522 76.8222 17.7224 76.8222 17.7224C80.7605 25.599 92.9693 24.8113 92.9693 33.8694C92.9693 39.383 89.8186 41.746 88.2433 41.746Z" fill="#FFAC00"/>
<path d="M108.723 118.149C108.723 118.149 112.661 117.755 112.661 116.573C112.661 115.392 108.329 112.635 108.329 106.334C108.723 102.002 111.086 97.6694 114.236 94.5187C115.812 92.9434 116.206 88.6113 110.692 89.0051C102.028 90.1866 93.7572 84.2791 92.5757 75.221V74.8272C84.6991 74.8272 85.0929 68.9198 85.0929 68.9198C85.0929 68.9198 88.2436 68.9198 87.8497 64.5876C87.4559 59.074 78.0039 58.6802 74.4595 58.6802C70.915 58.6802 61.8569 59.074 61.0693 64.5876C60.6754 68.9198 63.8261 68.9198 63.8261 68.9198C63.8261 68.9198 64.2199 74.8272 56.3433 74.8272C55.5556 83.4915 47.2852 90.1866 38.6209 89.0051H38.2271C33.1073 88.6113 33.5011 92.9434 35.0765 94.5187C38.6209 97.6694 40.5901 101.608 40.9839 106.334C40.9839 112.635 36.6518 115.392 36.6518 116.573C36.6518 117.755 40.5901 118.149 40.5901 118.149C39.8024 120.905 37.4394 122.875 34.2888 122.875C35.8641 126.025 39.0148 127.994 42.5592 127.994C46.1037 127.6 49.2544 125.237 50.4359 121.693C50.4359 121.693 50.4359 125.237 53.5865 125.237C56.7371 125.237 57.5248 125.237 59.1001 125.237C60.6754 125.237 64.2199 125.631 64.2199 129.176C64.2199 132.72 57.5248 140.203 59.494 142.172C61.4631 144.141 64.6137 142.96 74.8533 142.96C85.0929 142.96 88.2435 144.141 90.2127 142.172C92.1818 140.203 85.4867 132.72 85.4867 129.176C85.4867 125.631 89.0312 125.237 90.6065 125.237C92.1818 125.237 93.3633 125.237 96.1201 125.237C98.8769 125.237 98.4831 122.087 98.4831 122.087C99.6646 125.631 102.815 127.994 106.36 128.388C109.904 128.388 113.055 126.419 114.63 123.268C111.873 122.875 109.51 120.905 108.723 118.149Z" fill="white"/>
<path d="M83.5173 99.6396V100.821H81.5482C80.7605 98.0643 78.7914 96.0951 76.0346 95.3074V93.3383H77.2161V91.3691H71.7024V93.3383H72.8839V95.3074C70.1271 96.0951 68.158 98.0643 67.3703 100.821H65.4012V99.6396H63.8258V105.153H65.4012V103.972H67.3703C68.158 106.729 70.1271 108.698 72.8839 109.485V111.454H71.7024V113.424H77.2161V111.454H76.0346V109.485C78.7914 108.698 80.7605 106.729 81.5482 103.972H83.5173V105.153H85.0927V99.6396H83.5173Z" fill="#FFAC00"/>
<path d="M74.8535 70.1015C76.376 70.1015 77.6103 68.8673 77.6103 67.3447C77.6103 65.8222 76.376 64.5879 74.8535 64.5879C73.3309 64.5879 72.0967 65.8222 72.0967 67.3447C72.0967 68.8673 73.3309 70.1015 74.8535 70.1015Z" fill="#FFAC00"/>
<path d="M74.8535 138.235C76.376 138.235 77.6103 137.001 77.6103 135.478C77.6103 133.956 76.376 132.722 74.8535 132.722C73.3309 132.722 72.0967 133.956 72.0967 135.478C72.0967 137.001 73.3309 138.235 74.8535 138.235Z" fill="#FFAC00"/>
<path d="M105.572 125.632C107.094 125.632 108.329 124.398 108.329 122.875C108.329 121.352 107.094 120.118 105.572 120.118C104.049 120.118 102.815 121.352 102.815 122.875C102.815 124.398 104.049 125.632 105.572 125.632Z" fill="#FFAC00"/>
<path d="M106.754 97.6694C108.276 97.6694 109.51 96.4351 109.51 94.9126C109.51 93.39 108.276 92.1558 106.754 92.1558C105.231 92.1558 103.997 93.39 103.997 94.9126C103.997 96.4351 105.231 97.6694 106.754 97.6694Z" fill="#FFAC00"/>
<path d="M44.1345 125.632C45.657 125.632 46.8913 124.398 46.8913 122.875C46.8913 121.352 45.657 120.118 44.1345 120.118C42.6119 120.118 41.3777 121.352 41.3777 122.875C41.3777 124.398 42.6119 125.632 44.1345 125.632Z" fill="#FFAC00"/>
<path d="M42.9528 97.6694C44.4754 97.6694 45.7097 96.4351 45.7097 94.9126C45.7097 93.39 44.4754 92.1558 42.9528 92.1558C41.4303 92.1558 40.196 93.39 40.196 94.9126C40.196 96.4351 41.4303 97.6694 42.9528 97.6694Z" fill="#FFAC00"/>
<path d="M55.9495 92.156H56.7371C57.9186 91.7622 58.7063 91.7622 59.1001 92.5498C59.8878 93.3375 59.8877 94.1251 58.7063 95.3066C58.3124 95.7005 57.9186 95.7005 57.131 96.0943L55.5557 94.9128L54.768 95.7005L55.9495 97.6696C57.1309 97.2758 57.9186 96.882 59.1001 96.0943C61.0693 94.519 61.0693 92.5498 60.2816 91.3683C59.494 90.1868 58.3124 90.1868 55.9495 90.5807H55.1618C53.9803 90.9745 53.1926 90.9745 52.7988 90.1868C52.405 89.3992 52.405 88.2177 53.1927 87.8239C53.5865 87.43 53.9803 87.43 54.3742 87.43L55.9495 88.6115L56.7371 87.8239L55.5557 86.2485C54.768 86.2485 53.5865 86.6424 52.7988 87.43C52.7988 87.43 52.405 87.43 52.405 87.8239C50.8297 89.0053 50.8297 90.9745 51.6174 92.156C52.7988 92.5498 54.3741 92.9436 55.9495 92.156Z" fill="#002885"/>
<path d="M61.4632 93.337L64.6138 92.1555L64.22 91.3679L62.6446 91.7617V89.3987L65.7953 88.2172L67.3706 90.1864L66.1891 90.5802L66.5829 91.3679L68.1583 90.974L68.9459 90.5802L70.5212 90.1864H71.7027H72.8842H74.0657H78.3978V87.0357H77.6102L77.2164 89.0049H74.0657C74.0657 87.8234 74.0657 86.2481 74.0657 85.4604V84.6727C74.0657 83.4913 74.0657 81.9159 74.0657 80.7344H75.2472V79.9468H74.0657H72.0966H70.9151V80.7344H72.0966C72.0966 81.9159 72.0966 83.4913 72.0966 84.6727V85.4604C72.0966 86.6419 72.0966 87.8234 72.0966 89.3987H70.9151L69.7336 89.7925L63.4323 81.9159L62.2508 82.3098V92.1555L61.0693 92.5493L61.4632 93.337ZM65.7953 87.4296L63.0385 88.2172V83.4913L65.7953 87.4296Z" fill="#002885"/>
<path d="M81.5487 90.974L82.7302 91.3679L88.2438 83.0974H89.8191V82.3098H89.0315L87.85 81.9159L86.2746 81.5221V82.3098L87.4561 82.7036L83.124 88.611L82.7302 81.5221L84.3055 81.9159V81.1283L82.7302 80.7344L80.761 79.9468H79.9734V80.3406L80.761 80.7344L81.5487 90.974Z" fill="#002885"/>
<path d="M87.0621 91.7612L86.6682 92.5488L87.8497 93.3365L89.425 94.518L91.788 96.4871L92.9695 97.2748L94.5448 95.3056L93.3633 94.518L91.788 95.6995L89.425 93.7303C90.2127 92.5488 91.0004 91.7612 91.788 90.5797L93.3633 91.7612L92.5757 92.9426L93.3633 93.3365L95.3325 90.5797L94.5448 90.1858L93.7572 90.9735L92.1818 89.792C92.9695 88.6105 93.7572 87.8229 94.5448 86.6414L97.3016 88.6105L96.1201 90.1858L96.9078 90.9735L98.4831 88.6105L97.6955 87.8228V87.429L95.3325 85.4599L93.7572 84.2784L92.9695 83.4907L92.5757 84.2784L93.3633 85.066L91.0004 88.2167L90.6065 88.6105C89.8189 89.792 89.0312 90.9735 88.2435 91.7612H87.0621Z" fill="#002885"/>
<path d="M56.7371 113.817C57.5248 112.635 57.1309 110.666 55.1618 109.485L53.9803 108.697V108.303L52.405 107.122L51.6173 106.334L51.2235 107.122L52.0111 107.909C51.2235 109.091 50.4359 109.878 49.6482 111.06L49.2543 111.454L46.8913 114.604L45.7099 113.817L45.316 114.211L46.4975 114.998L47.2852 115.786L49.2543 117.361L49.6482 116.967L48.8605 116.18C49.6481 115.392 50.4358 114.211 51.2235 113.423L52.0111 113.817C52.0111 113.817 52.0112 113.817 52.405 113.817C53.1927 114.211 53.1926 115.392 52.7988 115.786L52.0111 117.755C51.6173 118.543 52.0111 119.33 52.7988 119.724C53.1926 120.118 53.5865 120.118 53.9803 120.512L54.3741 120.118L53.5865 119.33L54.3741 117.361C55.1618 116.18 54.768 114.604 53.5865 113.817C54.768 115.392 55.9494 115.392 56.7371 113.817ZM52.0111 112.635L51.2235 112.241L53.5865 109.091L54.3741 109.878C54.3741 109.878 54.7679 109.878 54.7679 110.272C55.5556 111.06 55.5556 112.241 54.7679 112.635C54.7679 112.635 54.768 112.635 54.3741 113.029C53.9803 113.817 52.7988 113.817 52.0111 112.635Z" fill="#002885"/>
<path d="M65.4013 113.816L61.463 112.635L59.1 111.847L58.7061 112.635L59.8876 113.029C59.4938 114.21 59.1 115.392 58.7061 116.967V117.755C58.3123 118.936 57.9185 120.118 57.5247 121.693L55.9493 121.299L55.5555 122.087L57.9185 122.874L63.4321 124.844L64.2198 122.481L63.0383 122.087L62.2506 123.662L59.1 122.481C59.4938 121.299 59.8877 120.118 60.2815 118.542L61.8568 118.936L61.463 120.118L62.2506 120.511L63.4321 117.361L62.6444 116.967L61.8568 118.148L59.8876 117.361C60.2815 116.179 60.6753 114.998 61.0691 113.816L64.2198 114.998L63.8259 116.967L65.0074 117.361L65.7951 114.604L65.4013 113.816Z" fill="#002885"/>
<path d="M75.2472 120.512L71.7027 120.118V120.906L73.2781 121.299V124.056V124.844C72.8842 124.844 72.4904 124.844 72.0966 124.844C70.1274 124.844 68.5521 122.875 68.9459 120.118C69.3397 116.967 70.915 115.786 72.8842 115.786C73.278 115.786 73.6719 115.786 74.0657 116.18L74.4595 118.149H75.641V115.786C74.8533 115.392 73.6718 114.998 72.4903 114.998C69.3397 114.604 66.9767 116.967 66.5829 119.724C66.1891 122.875 68.5521 125.238 71.3089 125.632C72.4904 125.632 73.6719 125.632 74.8534 124.844V124.056C74.8534 123.269 75.2472 122.087 75.2472 121.299H76.0349V120.512H75.2472Z" fill="#002885"/>
<path d="M80.7608 120.118V119.331C80.7608 118.149 80.367 116.574 80.367 115.392L81.5485 114.999V114.211L76.8225 114.605V115.392H78.3978C78.3978 116.574 78.7917 118.149 78.7917 119.331V120.118C78.7917 121.3 79.1855 122.875 79.1855 124.057L77.6102 124.451V125.238H79.1855H81.1547H82.3361V124.451H81.1547C81.1547 122.875 80.7608 121.694 80.7608 120.118Z" fill="#002885"/>
<path d="M92.9698 119.724L90.6068 113.028L91.7883 112.241L91.3944 111.453L89.8191 112.241H89.4253L87.85 112.635V113.422L89.8191 113.028L91.7883 118.936L84.6993 113.816L81.9425 114.604V115.391H83.124L85.8808 123.268L84.6993 124.056L85.0932 124.843L88.6376 123.268V122.874L87.0623 123.268L84.6993 116.179L92.5759 122.087L93.3636 121.693H93.7574H93.3636H93.7574L92.9698 119.724Z" fill="#002885"/>
<path d="M104.785 113.816L104.391 113.422L103.603 113.816L95.3326 108.696L94.1511 109.483L97.3018 118.935L96.5141 119.723L96.908 120.117L99.6648 118.148L99.2709 117.754L98.0894 118.542L97.3018 116.179L100.059 113.816L102.028 114.997L100.846 116.179L101.24 116.572L102.422 115.391L103.997 114.209L104.785 113.816ZM96.5141 115.391L94.9388 111.059L98.8771 113.816L96.5141 115.391Z" fill="#002885"/>
</svg>
