<svg width="276" height="163" viewBox="0 0 276 163" fill="none" xmlns="http://www.w3.org/2000/svg">
<path d="M147.8 122H141.2V115.5L144.5 112.3H131.5L134.7 115.5V122H128.2L124.9 118.8V131.8L128.2 128.6H134.7V135.1L131.5 138.4H144.5L141.2 135.1V128.6H147.8L151 131.8V118.8L147.8 122Z" fill="#DB0812"/>
<path d="M147.8 123.9H139.4V115.5H136.5V123.9H128.2V126.8H136.5V135.1H139.4V126.8H147.8V123.9Z" fill="white"/>
<path d="M90.6 55.3C87.9 54.9 86.9 53.5 85.6 53.6C84.3 53.7 83.2 55.3 83.2 55.3C83.2 55.3 84.4 56.9 85.6 57C86.8 57.1 87.9 55.7 90.6 55.3ZM86.9 54.6C87.7 54.5 88.3 55.2 89.8 55.4C88.2 55.6 87.6 56.2 86.9 56.2C86.4 56.1 85.9 55.8 85.5 55.4C85.9 54.9 86.4 54.7 86.9 54.6ZM93.9 55.6C93.4 56.1 92.9 56.7 92.4 57.3C93.1 56.7 93.9 56.2 94.8 55.8C95.5 55.5 96.2 55.3 97 55.3C96.3 55.2 95.5 55 94.8 54.8C93.9 54.4 93.1 53.9 92.4 53.3C92.8 53.9 93.3 54.5 93.9 55C90.1 53.8 89.3 50.9 88.7 51.5C88.1 52.1 88.6 54.2 90.8 54.9C91.5 55.1 92.2 55.2 92.9 55.3C92.2 55.4 91.5 55.5 90.8 55.7C88.7 56.4 88 58.3 88.7 59.1C89.4 59.9 90.1 56.8 93.9 55.6Z" fill="#FFAC00"/>
<path d="M97.7 55.9C98 55.9 98.3 55.5999 98.3 55.2999C98.3 54.9999 98.1 54.7 97.8 54.7C97.5 54.7 97.2 54.9 97.2 55.2C97.2 55.3 97.2 55.3 97.2 55.4C97.1 55.6 97.4 55.9 97.7 55.9Z" fill="#FFAC00"/>
<path d="M101.9 55.1001H98.1V55.5001H101.9V55.1001Z" fill="#FFAC00"/>
<path d="M100.5 55.5C102.8 55.5 104.5 56.2001 105.3 57.4001C105.8 58.1001 105.9 59 105.5 59.8C105.2 60.7 104.2 61.3001 103.3 61.2001C102.4 61.1001 101.7 60.5001 101.6 59.7001C101.5 59.2001 101.6 58.8001 101.9 58.4001C102.1 58.1001 102.5 57.9001 102.9 57.9001C103.2 57.9001 103.5 58.1 103.7 58.3C103.8 58.5 103.9 58.7001 103.8 58.9001C103.7 59.1001 103.5 59.3001 103.2 59.2001C103 59.2001 102.8 59.0001 102.8 58.7001C102.8 58.6001 102.7 58.5 102.6 58.5C102.5 58.5 102.4 58.6001 102.4 58.7001C102.4 59.1001 102.8 59.4 103.2 59.5C103.6 59.5 104 59.3001 104.2 58.9001C104.4 58.6001 104.3 58.2001 104.1 57.9001C103.8 57.5001 103.4 57.3 102.9 57.3C102.4 57.3 101.9 57.5001 101.6 57.9001C101.2 58.4001 101.1 59 101.2 59.5C101.4 60.5 102.3 61.3001 103.3 61.4001C104.5 61.5001 105.6 60.8001 106 59.7001C106.4 58.8001 106.3 57.8001 105.8 56.9001C105 55.9001 103.9 55.2 102.6 55.1C103.9 54.9 105 54.3 105.8 53.3C106.3 52.5 106.4 51.4 106 50.5C105.6 49.5 104.6 48.8 103.6 48.8H103.4C102.4 48.9 101.5 49.6001 101.3 50.7001C101.2 51.3001 101.3 51.9001 101.7 52.4001C102 52.8001 102.5 53 103 53C103.5 53 103.9 52.8001 104.2 52.4001C104.4 52.1001 104.4 51.7001 104.3 51.4001C104.1 51.0001 103.7 50.8 103.3 50.8C102.9 50.9 102.6 51.2 102.5 51.6C102.5 51.7 102.6 51.8 102.7 51.8C102.8 51.8 102.9 51.7 102.9 51.6C102.9 51.4 103.1 51.2 103.3 51.1C103.5 51.1 103.8 51.2 103.9 51.5C104 51.7 104 51.9 103.8 52.1C103.6 52.4 103.3 52.5 103 52.5C102.6 52.5 102.2 52.3 102 52C101.7 51.6 101.6 51.2001 101.7 50.7001C101.9 49.9001 102.6 49.2001 103.4 49.2001C104.4 49.1001 105.3 49.7 105.6 50.6C105.9 51.4 105.9 52.3 105.4 53C104.6 54.2 102.9 54.8 100.6 54.8H99.8V55.2001L100.5 55.5Z" fill="#FFAC00"/>
<path d="M190.4 57.0001C191.6 56.9001 192.8 55.3001 192.8 55.3001C192.8 55.3001 191.7 53.7001 190.4 53.6001C189.1 53.5001 188.1 54.9001 185.4 55.3001C188.1 55.7001 189.1 57.2001 190.4 57.0001ZM190.5 55.3001C190.1 55.7001 189.6 56.0001 189.1 56.1001C188.3 56.2001 187.7 55.5001 186.2 55.3001C187.8 55.1001 188.4 54.5001 189.1 54.5001C189.6 54.7001 190.1 54.9001 190.5 55.3001ZM187.4 59.1001C188.2 58.3001 187.4 56.4001 185.3 55.7001C184.6 55.5001 183.9 55.4001 183.2 55.3001C183.9 55.2001 184.6 55.1001 185.3 54.9001C187.4 54.2001 188.2 52.3001 187.4 51.5001C186.6 50.7001 185.9 53.8001 182.1 55.0001C182.6 54.5001 183.1 53.9001 183.6 53.3001C182.9 53.9001 182 54.4001 181.2 54.8001C180.5 55.1001 179.8 55.3001 179 55.3001C179.7 55.4001 180.5 55.6001 181.2 55.8001C182.1 56.2001 182.9 56.7001 183.6 57.3001C183.1 56.7001 182.7 56.1001 182.1 55.6001C185.9 56.8001 186.7 59.8001 187.4 59.1001Z" fill="#FFAC00"/>
<path d="M178.3 55.9C178.631 55.9 178.9 55.6313 178.9 55.2999C178.9 54.9686 178.631 54.7 178.3 54.7C177.969 54.7 177.7 54.9686 177.7 55.2999C177.7 55.6313 177.969 55.9 178.3 55.9Z" fill="#FFAC00"/>
<path d="M177.9 55.1001H174.1V55.5001H177.9V55.1001Z" fill="#FFAC00"/>
<path d="M175.5 55.5C173.2 55.5 171.5 56.2001 170.7 57.4001C170.2 58.1001 170.1 59 170.5 59.8C170.8 60.7 171.8 61.3001 172.7 61.2001C173.6 61.1001 174.3 60.5001 174.4 59.7001C174.5 59.2001 174.4 58.8001 174.1 58.4001C173.8 58.1001 173.5 57.9001 173.1 57.9001C172.8 57.9001 172.4 58 172.3 58.3C172.2 58.5 172.1 58.7001 172.2 58.9001C172.3 59.1001 172.5 59.3001 172.8 59.2001C173 59.2001 173.2 59.0001 173.2 58.7001C173.2 58.6001 173.3 58.5 173.4 58.5C173.5 58.5 173.6 58.6001 173.6 58.7001C173.6 59.1001 173.2 59.4 172.8 59.5C172.4 59.5 172 59.3001 171.8 58.9001C171.7 58.6001 171.7 58.2001 171.9 57.9001C172.2 57.5001 172.6 57.3 173.1 57.3C173.6 57.3 174.1 57.5001 174.4 57.9001C174.8 58.4001 174.9 59 174.8 59.5C174.6 60.5 173.7 61.3001 172.7 61.4001C171.5 61.5001 170.4 60.8001 170 59.7001C169.6 58.8001 169.7 57.8001 170.3 56.9001C171.1 55.9001 172.2 55.2 173.5 55.1C172.2 54.9 171.1 54.3 170.3 53.3C169.8 52.5 169.7 51.5 170 50.5C170.4 49.5 171.3 48.8 172.4 48.8H172.6C173.6 48.9 174.5 49.6001 174.7 50.7001C174.8 51.3001 174.7 51.9001 174.3 52.4001C174 52.8001 173.5 53 173 53C172.5 53 172.1 52.8001 171.8 52.4001C171.6 52.1001 171.6 51.7001 171.7 51.4001C171.9 51.0001 172.3 50.8 172.7 50.8C173.1 50.9 173.4 51.2 173.5 51.6C173.5 51.7 173.5 51.8 173.3 51.8C173.2 51.8 173.1 51.7 173.1 51.6C173.1 51.4 172.9 51.2 172.7 51.1C172.5 51.1 172.2 51.2 172.1 51.5C172 51.7 172.1 51.9 172.2 52.1C172.4 52.4 172.7 52.5 173 52.5C173.4 52.5 173.8 52.3 174 52C174.3 51.6 174.4 51.2001 174.3 50.7001C174.1 49.9001 173.4 49.2001 172.6 49.2001C171.6 49.1001 170.7 49.7 170.4 50.6C170.1 51.4 170.1 52.3 170.6 53C171.4 54.2 173.1 54.8 175.4 54.8H176.2V55.2001L175.5 55.5Z" fill="#FFAC00"/>
<path d="M270.2 76.7999C268.2 73.3999 267.4 83.5999 252.1 84.4999C265.5 85.7999 272.5 80.5999 270.2 76.7999Z" fill="#FFAC00"/>
<path d="M263.6 70.7C261.3 67.4 264.2 79.8 248.7 82.5C263.6 82.8 266.1 74.3 263.6 70.7Z" fill="#FFAC00"/>
<path d="M270.2 96.0999C268.2 99.4999 267.4 89.3999 252.1 88.3999C265.5 87.0999 272.5 92.1999 270.2 96.0999Z" fill="#FFAC00"/>
<path d="M263.6 102.1C261.3 105.4 264.2 93 248.7 90.3C263.6 90 266.1 98.5 263.6 102.1Z" fill="#FFAC00"/>
<path d="M276 86.3999C276 90.1999 264.2 86.6999 257.5 86.3999C264.2 86.0999 276 82.5999 276 86.3999Z" fill="#FFAC00"/>
<path d="M5.69996 76.7999C7.69996 73.3999 8.49996 83.5999 23.8 84.4999C10.5 85.7999 3.49996 80.5999 5.69996 76.7999Z" fill="#FFAC00"/>
<path d="M12.4 70.7C14.7 67.4 11.8 79.8 27.3 82.5C12.4 82.8 9.8 74.3 12.4 70.7Z" fill="#FFAC00"/>
<path d="M5.69996 96.0999C7.69996 99.4999 8.49996 89.3999 23.8 88.3999C10.5 87.0999 3.49996 92.1999 5.69996 96.0999Z" fill="#FFAC00"/>
<path d="M12.4 102.1C14.7 105.4 11.8 93 27.3 90.3C12.4 90 9.8 98.5 12.4 102.1Z" fill="#FFAC00"/>
<path d="M0 86.3999C0 90.1999 11.8 86.6999 18.5 86.3999C11.8 86.0999 0 82.5999 0 86.3999Z" fill="#FFAC00"/>
<path d="M198.8 30.0001C203.9 28.4001 204.5 21.5001 206.2 22.6001C208.1 23.8001 207 28.6001 198.8 30.0001Z" fill="#FFAC00"/>
<path d="M220.9 27.0001C221.5 28.6001 213.3 25.8001 206.2 28.9001C214.1 23.1001 220.4 25.4001 220.9 27.0001Z" fill="#FFAC00"/>
<path d="M138 10.5C142.6 10.5 138.4 18 138 22.3C137.6 18 133.4 10.5 138 10.5Z" fill="#FFAC00"/>
<path d="M146.6 16.6C145.5 14.8 139.6 17.1 140.8 22.7C142.7 31.6 157 35.9 172 35.4C187.4 34.9 204.2 29.7 227.1 34.8C251.1 40.2 262.4 58.7 256 72.5C253.4 78.2 248.6 79.7 245.3 78.5C243.7 78.1 242.8 76.4 243.2 74.8C243.3 74.5 243.4 74.3 243.5 74.1C244.8 72.2 244.9 74.4 246.4 73.9C248.6 73.2 247.3 70.2 244.3 70.7C242.3 71.1 241 73.2 241.4 75.2C241.5 75.6 241.6 75.9 241.8 76.2C242.5 77.5 243.8 78.5 245.2 78.9C249.6 80.3 255.4 77.9 258.3 71.9C265.5 57.1 254.8 35.4 227.4 31.1C205.9 27.8 191.3 34 171.4 34.4C157 34.7 147.6 30.1 145.6 23.3C144.7 20.4 147.6 18.3 146.6 16.6Z" fill="#FFAC00"/>
<path d="M232.9 43.2001C249.2 50.3001 250.6 61.2001 247.5 65.6001C246 67.9001 242.8 68.6001 240.5 67.1001C239.3 66.3001 239 64.8001 239.8 63.6001C240 63.3001 240.3 63.0001 240.7 62.8001C243.4 60.9001 245.9 64.8001 243 65.3001C242.5 65.4001 242.8 64.4001 242 64.4001C240.8 64.4001 239.6 65.7001 240.8 66.7001C242 67.7001 244.2 67.4001 245.6 65.8001C249 61.9001 247.5 52.0001 232.4 44.9001C213.2 35.8001 184.5 37.9001 172.5 37.8001C184.6 37.6001 213.4 34.7001 232.9 43.2001Z" fill="#FFAC00"/>
<path d="M172.3 37.7999C187.2 38.0999 194.4 29.0999 190.9 22.1999C188.1 16.6999 178.9 18.7999 180.3 24.0999C181.1 27.0999 185.6 26.7999 185.5 25.2999C185.4 23.7999 183.3 24.7999 182.8 23.4999C182.2 21.7999 185.9 20.3999 187.7 23.3999C190.9 28.2999 187.3 37.5999 172.3 37.7999Z" fill="#FFAC00"/>
<path d="M197.8 21.5999C200.2 22.2999 201 29.5999 192.5 30.9999C198.6 29.4999 195.4 20.7999 197.8 21.5999Z" fill="#FFAC00"/>
<path d="M173.4 22.9999C170.7 20.3999 166.2 21.5999 165.6 24.0999C165.2 25.6999 166.1 27.1999 167.7 27.5999C168.1 27.6999 168.5 27.6999 168.9 27.6999C170.3 27.4999 170.7 26.3999 169.8 25.8999C169.4 25.6999 168.4 25.9999 168.2 25.4999C167.6 24.2999 169.9 23.2999 171.6 24.5999C174.2 26.5999 174.6 33.4999 165.9 33.3999C174 34.2999 177.7 27.1999 173.4 22.9999Z" fill="#FFAC00"/>
<path d="M158.5 30.7C162.6 30.2 162 25.9 158.4 26.1C157.2 26.1 158.5 27.5 157.7 28.5C156.7 29.7 152.3 29.9 149.1 26.3C150.4 28.7 154.6 31.2 158.5 30.7Z" fill="#FFAC00"/>
<path d="M129.4 16.6C130.5 14.8 136.3 17.1 135.2 22.7C133.3 31.6 119 35.9 104 35.4C88.6 34.9 71.8 29.7 48.9 34.8C24.9 40.2 13.6 58.7 20 72.5C22.6 78.2 27.4 79.7 30.7 78.5C32.3 78.1 33.2 76.4 32.8 74.8C32.7 74.5 32.6 74.3 32.5 74.1C31.2 72.2 31.1 74.4 29.6 73.9C27.4 73.2 28.7 70.2 31.7 70.7C33.7 71.1 35 73.2 34.6 75.2C34.5 75.6 34.4 75.9 34.2 76.2C33.5 77.5 32.2 78.5 30.8 78.9C26.4 80.3 20.6 77.9 17.7 71.9C10.5 57.1 21.2 35.4 48.6 31.1C70.1 27.8 84.7 34 104.6 34.4C119 34.7 128.4 30.1 130.4 23.3C131.3 20.4 128.4 18.3 129.4 16.6Z" fill="#FFAC00"/>
<path d="M43.0999 43.2001C26.7999 50.3001 25.3999 61.2001 28.4999 65.6001C29.9999 67.9001 33.1999 68.6001 35.4999 67.1001C36.6999 66.3001 36.9999 64.8001 36.1999 63.6001C35.9999 63.3001 35.6999 63.0001 35.2999 62.8001C32.5999 60.9001 30.0999 64.8001 32.9999 65.3001C33.4999 65.4001 33.1999 64.4001 33.9999 64.4001C35.1999 64.4001 36.3999 65.7001 35.1999 66.7001C33.9999 67.7001 31.7999 67.4001 30.3999 65.8001C26.9999 61.9001 28.4999 52.0001 43.5999 44.9001C62.7999 35.8001 91.4999 37.9001 103.5 37.8001C91.3999 37.6001 62.5999 34.7001 43.0999 43.2001Z" fill="#FFAC00"/>
<path d="M103.7 37.8001C88.8 38.1001 81.6 29.1001 85.1 22.2001C87.9 16.7001 97 18.8001 95.7 24.0001C94.9 27.0001 90.4 26.7001 90.5 25.2001C90.6 23.7001 92.7 24.7001 93.2 23.4001C93.9 21.7001 90.1 20.3001 88.3 23.3001C85.1 28.3001 88.7 37.6001 103.7 37.8001Z" fill="#FFAC00"/>
<path d="M78.2 21.5999C75.7 22.2999 75 29.5999 83.4 30.9999C77.4 29.4999 80.6 20.7999 78.2 21.5999Z" fill="#FFAC00"/>
<path d="M102.6 22.9999C105.3 20.3999 109.8 21.5999 110.4 24.0999C110.8 25.6999 109.9 27.1999 108.3 27.5999C107.9 27.6999 107.5 27.6999 107.1 27.6999C105.7 27.4999 105.3 26.3999 106.2 25.8999C106.6 25.6999 107.6 25.9999 107.9 25.4999C108.5 24.2999 106.2 23.2999 104.5 24.5999C101.9 26.5999 101.5 33.4999 110.2 33.3999C102 34.2999 98.2999 27.1999 102.6 22.9999Z" fill="#FFAC00"/>
<path d="M117.4 30.7C113.3 30.2 113.9 25.9 117.5 26.1C118.7 26.1 117.4 27.5 118.2 28.5C119.2 29.7 123.6 29.9 126.8 26.3C125.6 28.7 121.4 31.2 117.4 30.7Z" fill="#FFAC00"/>
<path d="M138 162.3C133.4 162.3 137.6 154.8 138 150.5C138.4 154.8 142.6 162.3 138 162.3Z" fill="#FFAC00"/>
<path d="M129.4 156.3C130.5 158.1 136.3 155.9 135.2 150.2C133.3 141.3 119 137 104 137.5C88.6 138 71.8 143.3 48.9 138.1C24.9 132.7 13.6 114.3 20 100.4C22.6 94.7 27.4 93.2 30.7 94.3C32.3 94.7 33.2 96.4 32.8 98C32.7 98.3 32.6 98.5 32.5 98.7C31.2 100.6 31.1 98.4 29.6 98.9C27.4 99.6 28.7 102.6 31.7 102.1C33.7 101.7 35 99.6 34.6 97.6C34.5 97.2 34.4 96.9 34.2 96.6C33.5 95.3 32.2 94.3 30.8 93.8C26.4 92.4 20.6 94.8 17.7 100.8C10.5 115.6 21.2 137.3 48.6 141.6C70.1 144.9 84.7 138.7 104.6 138.3C119 138 128.4 142.5 130.4 149.4C131.3 152.5 128.4 154.5 129.4 156.3Z" fill="#FFAC00"/>
<path d="M43.0999 129.6C26.7999 122.5 25.3999 111.6 28.4999 107.2C30.0999 104.9 33.1999 104.2 35.4999 105.7C36.6999 106.5 36.9999 108 36.1999 109.2C35.9999 109.5 35.6999 109.8 35.2999 110C32.5999 111.9 30.0999 108 32.9999 107.5C33.4999 107.4 33.1999 108.4 33.9999 108.4C35.1999 108.4 36.3999 107.1 35.1999 106.1C33.9999 105.1 31.7999 105.4 30.3999 107C26.9999 110.9 28.4999 120.8 43.5999 127.9C62.7999 137 91.4999 134.9 103.5 135C91.3999 135.3 62.5999 138.1 43.0999 129.6Z" fill="#FFAC00"/>
<path d="M103.7 135C88.8 134.7 81.6 143.7 85.1 150.6C87.9 156.1 97.1 154 95.7 148.7C94.9 145.7 90.4 146 90.5 147.5C90.6 149 92.7 147.9 93.2 149.3C93.9 151 90.1 152.4 88.3 149.4C85.1 144.5 88.7 135.3 103.7 135Z" fill="#FFAC00"/>
<path d="M78.2001 151.3C75.8001 150.6 75.0001 143.3 83.5001 141.9C77.4001 143.4 80.6001 152 78.2001 151.3Z" fill="#FFAC00"/>
<path d="M102.6 149.8C105.3 152.4 109.8 151.2 110.4 148.7C110.8 147.1 109.9 145.6 108.3 145.2C107.9 145.1 107.5 145.1 107.1 145.1C105.7 145.3 105.3 146.4 106.2 146.9C106.6 147.1 107.6 146.8 107.9 147.2C108.5 148.4 106.2 149.4 104.5 148.1C101.9 146.1 101.5 139.2 110.2 139.3C102 138.5 98.2999 145.6 102.6 149.8Z" fill="#FFAC00"/>
<path d="M117.4 142.1C113.3 142.6 113.9 146.9 117.5 146.7C118.7 146.7 117.4 145.3 118.2 144.3C119.2 143.1 123.6 142.9 126.8 146.5C125.6 144.1 121.3 141.6 117.4 142.1Z" fill="#FFAC00"/>
<path d="M146.6 156.3C145.5 158.1 139.6 155.9 140.8 150.2C142.7 141.3 157 137.1 172 137.5C187.4 138 204.2 143.3 227.1 138.1C251.1 132.7 262.4 114.3 256 100.4C253.4 94.7 248.6 93.2 245.3 94.3C243.7 94.7 242.8 96.4 243.2 98C243.3 98.3 243.4 98.5 243.5 98.7C244.8 100.6 244.9 98.4 246.4 98.9C248.6 99.6 247.3 102.6 244.3 102.1C242.3 101.7 241 99.6 241.4 97.6C241.5 97.2 241.6 96.9 241.8 96.6C242.5 95.3 243.8 94.3 245.2 93.8C249.6 92.4 255.4 94.8 258.3 100.8C265.5 115.6 254.8 137.3 227.4 141.6C205.9 144.9 191.3 138.7 171.4 138.3C157 138 147.6 142.5 145.6 149.4C144.7 152.5 147.6 154.5 146.6 156.3Z" fill="#FFAC00"/>
<path d="M232.9 129.6C249.2 122.5 250.6 111.6 247.5 107.2C246 104.9 242.8 104.2 240.5 105.7C239.3 106.5 239 108 239.8 109.2C240 109.5 240.3 109.8 240.7 110C243.4 111.9 245.9 108 243 107.5C242.5 107.4 242.8 108.4 242 108.4C240.8 108.4 239.6 107.1 240.8 106.1C242 105.1 244.2 105.4 245.6 107C249 110.9 247.4 120.8 232.4 127.9C213.2 137 184.5 134.9 172.5 135C184.6 135.3 213.4 138.1 232.9 129.6Z" fill="#FFAC00"/>
<path d="M172.3 135C187.2 134.7 194.4 143.7 190.9 150.6C188.1 156.1 178.9 154 180.3 148.7C181.1 145.7 185.6 146 185.5 147.5C185.4 149 183.3 147.9 182.8 149.3C182.2 151 185.9 152.4 187.7 149.4C190.9 144.5 187.3 135.3 172.3 135Z" fill="#FFAC00"/>
<path d="M197.8 151.3C200.3 150.6 201 143.3 192.6 141.9C198.6 143.4 195.4 152 197.8 151.3Z" fill="#FFAC00"/>
<path d="M173.4 149.8C170.7 152.4 166.2 151.2 165.6 148.7C165.2 147.1 166.1 145.6 167.7 145.2C168.1 145.1 168.5 145.1 168.9 145.1C170.3 145.3 170.7 146.4 169.8 146.9C169.4 147.1 168.4 146.8 168.2 147.2C167.6 148.4 169.9 149.4 171.6 148.1C174.2 146.1 174.6 139.2 165.9 139.3C174 138.5 177.7 145.6 173.4 149.8Z" fill="#FFAC00"/>
<path d="M158.5 142.1C162.6 142.6 162 146.9 158.4 146.7C157.2 146.7 158.5 145.3 157.7 144.3C156.7 143.1 152.3 142.9 149.1 146.5C150.4 144.1 154.6 141.6 158.5 142.1Z" fill="#FFAC00"/>
<path d="M137.1 41.2999C137.1 41.7999 137.5 42.0999 138 42.0999C138.5 42.0999 138.9 41.6999 138.9 41.1999C138.9 40.6999 138.5 40.3999 138 40.3999C137.5 40.4999 137.1 40.8999 137.1 41.2999Z" fill="#FFAC00"/>
<path d="M60.2999 101.2C60.2999 100.3 60.8999 99.6 61.7999 99.5C61.8999 99.5 61.9999 99.5 62.0999 99.5C63.4999 99.7 64.3 100.8 67.3 101.2C64.3 101.5 63.4999 102.7 62.0999 102.9C61.1999 103 60.4 102.4 60.2 101.6C60.3 101.4 60.2999 101.3 60.2999 101.2Z" fill="#FFAC00"/>
<path d="M72.1 100.4C72.7 101 74 101 74 101.2C74 101.4 72.7 101.4 72.1 102C71.5 102.6 71.5 103.2 71.3 103.2C71.1 103.2 71.1 102.7 70.5 102C69.9 101.3 68.6 101.4 68.6 101.2C68.6 101 69.9 101 70.5 100.4C71.1 99.8 71.1 99.2 71.3 99.2C71.5 99.2 71.4 99.7 72.1 100.4Z" fill="#FFAC00"/>
<path d="M74.7 101.9C75.1 101.9 75.4 101.6 75.4 101.2C75.4 100.8 75.1 100.5 74.7 100.5C74.3 100.5 74 100.8 74 101.2C74 101.6 74.3 101.9 74.7 101.9Z" fill="#FFAC00"/>
<path d="M90.9 101.9C91.3 101.9 91.6 101.6 91.6 101.2C91.6 100.8 91.3 100.5 90.9 100.5C90.5 100.5 90.2 100.8 90.2 101.2C90.2 101.6 90.5 101.9 90.9 101.9Z" fill="#FFAC00"/>
<path d="M67.8 101.9C68.2 101.9 68.5 101.6 68.5 101.2C68.5 100.8 68.2 100.5 67.8 100.5C67.4 100.5 67.1 100.8 67.1 101.2C67.1 101.6 67.4 101.9 67.8 101.9Z" fill="#FFAC00"/>
<path d="M90.5 100.9H75.2V101.4H90.5V100.9Z" fill="#FFAC00"/>
<path d="M215.6 101.2C215.6 100.3 215 99.6 214.1 99.5C214 99.5 213.9 99.5 213.8 99.5C212.4 99.7 211.6 100.8 208.6 101.2C211.6 101.5 212.4 102.7 213.8 102.9C214.7 103 215.5 102.4 215.6 101.6C215.6 101.4 215.7 101.3 215.6 101.2Z" fill="#FFAC00"/>
<path d="M203.9 100.4C203.3 101 202 101 202 101.2C202 101.4 203.3 101.4 203.9 102C204.5 102.6 204.5 103.2 204.7 103.2C204.9 103.2 204.9 102.7 205.5 102C206.1 101.3 207.4 101.4 207.4 101.2C207.4 101 206.1 101 205.5 100.4C204.9 99.8 204.9 99.2 204.7 99.2C204.5 99.2 204.6 99.7 203.9 100.4Z" fill="#FFAC00"/>
<path d="M201.3 101.9C200.9 101.9 200.6 101.6 200.6 101.2C200.6 100.8 200.9 100.5 201.3 100.5C201.7 100.5 202 100.8 202 101.2C202 101.6 201.7 101.9 201.3 101.9Z" fill="#FFAC00"/>
<path d="M185.1 101.9C184.7 101.9 184.4 101.6 184.4 101.2C184.4 100.8 184.7 100.5 185.1 100.5C185.5 100.5 185.8 100.8 185.8 101.2C185.8 101.6 185.5 101.9 185.1 101.9Z" fill="#FFAC00"/>
<path d="M208.2 101.9C207.8 101.9 207.5 101.6 207.5 101.2C207.5 100.8 207.8 100.5 208.2 100.5C208.6 100.5 208.9 100.8 208.9 101.2C208.9 101.6 208.6 101.9 208.2 101.9Z" fill="#FFAC00"/>
<path d="M200.8 100.9H185.5V101.4H200.8V100.9Z" fill="#FFAC00"/>
<path d="M156.9 19.4C156.9 18.5 156.5 16.3 154.2 16.3C152.9 16.3 151.7 17.1 151.2 18.4C152.4 17.8 153.5 19.9 150 19.9C147.3 19.9 147 17.1 146.4 15.1C145.9 13.4 144.6 12.2 142.8 11.9C145.4 7.8 142.9 5.8 140.9 5.2C138.9 4.6 138.4 3.1 138.4 2.5V1.5H139.2V0.9H138.4V0H137.7V0.9H136.9V1.6H137.7V2.5C137.7 3.1 137.3 4.5 135.2 5.2C133.1 5.9 130.6 7.9 133.3 11.9C131.6 12.2 130.2 13.4 129.8 15.1C129.1 17.1 128.8 19.9 126.1 19.9C122.5 19.9 123.6 17.7 124.9 18.4C124.4 17.2 123.2 16.3 121.9 16.3C119.6 16.3 119.2 18.6 119.2 19.4C119.2 23.3 123.4 24 123.4 27C123.4 29.5 121.6 30.5 121.6 32C121.6 33 122.3 33 123.6 33.9C124.9 34.8 124.6 35.4 125.5 35.9C126.5 36.5 129.1 35.3 130.7 36.6C133.6 39 129.8 39.3 132.1 40.8C133.8 42 134.4 40.5 135.1 40.6C135.8 40.7 135.4 41.3 136.4 41.3H137.3V42H135.6C135.2 42 134.9 42.3 134.9 42.7C134.9 43.1 135.2 43.4 135.6 43.4H135.7C135.7 44 136.2 44.6 136.9 44.6C137 44.6 137 44.6 137.1 44.6C137.1 44.7 137.1 44.8 137.1 44.9C137 45.5 137.5 46.1 138.1 46.2C138.7 46.3 139.3 45.8 139.4 45.2C139.4 45.1 139.4 45.1 139.4 45C139.4 44.9 139.4 44.8 139.3 44.7C139.4 44.7 139.5 44.7 139.5 44.7C140.1 44.7 140.7 44.2 140.6 43.5H140.7C141.1 43.5 141.4 43.2 141.4 42.8C141.4 42.4 141.1 42.1 140.7 42.1H139V41.5H139.9C140.9 41.5 140.5 41 141.2 40.8C141.9 40.6 142.4 42.1 144.1 41C146.3 39.5 142.5 39.1 145.5 36.8C147.1 35.5 149.7 36.6 150.7 36.1C151.6 35.6 151.3 35 152.6 34.1C153.9 33.2 154.6 33.3 154.6 32.2C154.6 30.8 152.8 29.7 152.8 27.2C152.7 24 156.9 23.3 156.9 19.4ZM136.2 10.4C135.7 10.4 135.7 10.1 135.4 10.1C135.1 10.1 135 10.5 134.6 10.5C134.2 10.5 133.4 9.9 133.4 8.4C133.4 6.1 136.5 6.3 137.5 4.3C137.5 4.4 137.4 10.4 136.2 10.4ZM141.4 10.6C141 10.6 141 10.2 140.6 10.2C140.2 10.2 140.3 10.5 139.8 10.5C138.6 10.5 138.5 4.5 138.5 4.5C139.5 6.5 142.6 6.3 142.6 8.6C142.6 10 141.8 10.6 141.4 10.6Z" fill="#FFAC00"/>
<path d="M146.6 29.9999C146.6 29.9999 147.6 29.8999 147.6 29.5999C147.6 29.2999 146.5 28.5999 146.5 26.9999C146.6 25.8999 147.2 24.7999 148 23.9999C148.4 23.5999 148.5 22.4999 147.1 22.5999C144.9 22.8999 142.8 21.3999 142.5 19.0999V18.9999C140.5 18.9999 140.6 17.4999 140.6 17.4999C140.6 17.4999 141.4 17.4999 141.3 16.3999C141.2 14.9999 138.8 14.8999 137.9 14.8999C137 14.8999 134.7 14.9999 134.5 16.3999C134.4 17.4999 135.2 17.4999 135.2 17.4999C135.2 17.4999 135.3 18.9999 133.3 18.9999C133.1 21.1999 131 22.8999 128.8 22.5999H128.7C127.4 22.4999 127.5 23.5999 127.9 23.9999C128.8 24.7999 129.3 25.7999 129.4 26.9999C129.4 28.5999 128.3 29.2999 128.3 29.5999C128.3 29.8999 129.3 29.9999 129.3 29.9999C129.1 30.6999 128.5 31.1999 127.7 31.1999C128.1 31.9999 128.9 32.4999 129.8 32.4999C130.7 32.3999 131.5 31.7999 131.8 30.8999C131.8 30.8999 131.8 31.7999 132.6 31.7999C133.4 31.7999 133.6 31.7999 134 31.7999C134.4 31.7999 135.3 31.8999 135.3 32.7999C135.3 33.6999 133.6 35.5999 134.1 36.0999C134.6 36.5999 135.4 36.2999 138 36.2999C140.6 36.2999 141.4 36.5999 141.9 36.0999C142.4 35.5999 140.7 33.6999 140.7 32.7999C140.7 31.8999 141.6 31.7999 142 31.7999C142.4 31.7999 142.7 31.7999 143.4 31.7999C144.1 31.7999 144 30.9999 144 30.9999C144.3 31.8999 145.1 32.4999 146 32.5999C146.9 32.5999 147.7 32.0999 148.1 31.2999C147.4 31.1999 146.8 30.6999 146.6 29.9999Z" fill="white"/>
<path d="M140.2 25.2999V25.6H139.7C139.5 24.9 139 24.4 138.3 24.2V23.7H138.6V23.2H137.2V23.7H137.5V24.2C136.8 24.4 136.3 24.9 136.1 25.6H135.6V25.2999H135.2V26.7H135.6V26.4H136.1C136.3 27.1 136.8 27.5999 137.5 27.7999V28.2999H137.2V28.7999H138.6V28.2999H138.3V27.7999C139 27.5999 139.5 27.1 139.7 26.4H140.2V26.7H140.6V25.2999H140.2Z" fill="#FFAC00"/>
<path d="M138 17.7999C138.387 17.7999 138.7 17.4865 138.7 17.0999C138.7 16.7133 138.387 16.3999 138 16.3999C137.613 16.3999 137.3 16.7133 137.3 17.0999C137.3 17.4865 137.613 17.7999 138 17.7999Z" fill="#FFAC00"/>
<path d="M138 35.0999C138.387 35.0999 138.7 34.7866 138.7 34.4C138.7 34.0134 138.387 33.7 138 33.7C137.613 33.7 137.3 34.0134 137.3 34.4C137.3 34.7866 137.613 35.0999 138 35.0999Z" fill="#FFAC00"/>
<path d="M145.8 31.9C146.187 31.9 146.5 31.5866 146.5 31.2C146.5 30.8134 146.187 30.5 145.8 30.5C145.413 30.5 145.1 30.8134 145.1 31.2C145.1 31.5866 145.413 31.9 145.8 31.9Z" fill="#FFAC00"/>
<path d="M146.1 24.7999C146.487 24.7999 146.8 24.4865 146.8 24.0999C146.8 23.7133 146.487 23.3999 146.1 23.3999C145.713 23.3999 145.4 23.7133 145.4 24.0999C145.4 24.4865 145.713 24.7999 146.1 24.7999Z" fill="#FFAC00"/>
<path d="M130.2 31.9C130.587 31.9 130.9 31.5866 130.9 31.2C130.9 30.8134 130.587 30.5 130.2 30.5C129.813 30.5 129.5 30.8134 129.5 31.2C129.5 31.5866 129.813 31.9 130.2 31.9Z" fill="#FFAC00"/>
<path d="M129.9 24.7999C130.287 24.7999 130.6 24.4865 130.6 24.0999C130.6 23.7133 130.287 23.3999 129.9 23.3999C129.513 23.3999 129.2 23.7133 129.2 24.0999C129.2 24.4865 129.513 24.7999 129.9 24.7999Z" fill="#FFAC00"/>
<path d="M133.2 23.4001H133.4C133.7 23.3001 133.9 23.3001 134 23.5001C134.2 23.7001 134.2 23.9001 133.9 24.2001C133.8 24.3001 133.7 24.3001 133.5 24.4001L133.1 24.1001L132.9 24.3001L133.2 24.8001C133.5 24.7001 133.7 24.6001 134 24.4001C134.5 24.0001 134.5 23.5001 134.3 23.2001C134.1 22.9001 133.8 22.9001 133.2 23.0001H133C132.7 23.1001 132.5 23.1001 132.4 22.9001C132.3 22.7001 132.3 22.4001 132.5 22.3001C132.6 22.2001 132.7 22.2001 132.8 22.2001L133.2 22.5001L133.4 22.3001L133.1 21.9001C132.9 21.9001 132.6 22.0001 132.4 22.2001C132.4 22.2001 132.3 22.2001 132.3 22.3001C131.9 22.6001 131.9 23.1001 132.1 23.4001C132.4 23.5001 132.8 23.6001 133.2 23.4001Z" fill="#002885"/>
<path d="M134.6 23.7001L135.4 23.4L135.3 23.2001L134.9 23.3V22.7001L135.7 22.4L136.1 22.9L135.8 23L135.9 23.2001L136.3 23.1L136.5 23L136.9 22.9H137.2H137.5H137.8H138.9V22.1H138.7L138.6 22.6H137.8C137.8 22.3 137.8 21.9001 137.8 21.7001V21.5C137.8 21.2 137.8 20.8 137.8 20.5H138.1V20.3H137.8H137.3H137V20.5H137.3C137.3 20.8 137.3 21.2 137.3 21.5V21.7001C137.3 22.0001 137.3 22.3001 137.3 22.7001H137L136.7 22.8L135.1 20.8L134.8 20.9V23.4L134.5 23.5L134.6 23.7001ZM135.7 22.2001L135 22.4V21.2001L135.7 22.2001Z" fill="#002885"/>
<path d="M139.7 23.1L140 23.2001L141.4 21.1H141.8V20.9H141.6L141.3 20.8L140.9 20.7001V20.9L141.2 21L140.1 22.5L140 20.7001L140.4 20.8V20.6L140 20.5L139.5 20.3H139.3V20.4L139.5 20.5L139.7 23.1Z" fill="#002885"/>
<path d="M141.1 23.2999L141 23.5L141.3 23.7L141.7 24L142.3 24.5L142.6 24.7L143 24.2L142.7 24L142.3 24.2999L141.7 23.7999C141.9 23.4999 142.1 23.3 142.3 23L142.7 23.2999L142.5 23.6L142.7 23.7L143.2 23L143 22.9L142.8 23.1L142.4 22.7999C142.6 22.4999 142.8 22.3 143 22L143.7 22.5L143.4 22.9L143.6 23.1L144 22.5L143.8 22.2999V22.2L143.2 21.7L142.8 21.4L142.6 21.2L142.5 21.4L142.7 21.6L142.1 22.4L142 22.5C141.8 22.8 141.6 23.0999 141.4 23.2999H141.1Z" fill="#002885"/>
<path d="M133.4 28.9C133.6 28.6 133.5 28.1 133 27.8L132.7 27.6V27.5L132.3 27.2L132.1 27L132 27.2L132.2 27.4C132 27.7 131.8 27.9 131.6 28.2L131.5 28.3L130.9 29.1L130.6 28.9L130.5 29L130.8 29.2L131 29.4L131.5 29.8L131.6 29.7L131.4 29.5C131.6 29.3 131.8 29 132 28.8L132.2 28.9C132.2 28.9 132.2 28.9 132.3 28.9C132.5 29 132.5 29.3 132.4 29.4L132.2 29.9C132.1 30.1 132.2 30.3 132.4 30.4C132.5 30.5 132.6 30.5 132.7 30.6L132.8 30.5L132.6 30.3L132.8 29.8C133 29.5 132.9 29.1 132.6 28.9C132.9 29.3 133.2 29.3 133.4 28.9ZM132.2 28.6L132 28.5L132.6 27.7L132.8 27.9C132.8 27.9 132.9 27.9 132.9 28C133.1 28.2 133.1 28.5 132.9 28.6C132.9 28.6 132.9 28.6 132.8 28.7C132.7 28.9 132.4 28.9 132.2 28.6Z" fill="#002885"/>
<path d="M135.6 28.9001L134.6 28.6001L134 28.4001L133.9 28.6001L134.2 28.7001C134.1 29.0001 134 29.3001 133.9 29.7001V29.9001C133.8 30.2001 133.7 30.5001 133.6 30.9001L133.2 30.8001L133.1 31.0001L133.7 31.2001L135.1 31.7001L135.3 31.1001L135 31.0001L134.8 31.4001L134 31.1001C134.1 30.8001 134.2 30.5001 134.3 30.1001L134.7 30.2001L134.6 30.5001L134.8 30.6001L135.1 29.8001L134.9 29.7001L134.7 30.0001L134.2 29.8001C134.3 29.5001 134.4 29.2001 134.5 28.9001L135.3 29.2001L135.2 29.7001L135.5 29.8001L135.7 29.1001L135.6 28.9001Z" fill="#002885"/>
<path d="M138.1 30.6002L137.2 30.5002V30.7002L137.6 30.8002V31.5002V31.7002C137.5 31.7002 137.4 31.7002 137.3 31.7002C136.8 31.7002 136.4 31.2002 136.5 30.5002C136.6 29.7002 137 29.4002 137.5 29.4002C137.6 29.4002 137.7 29.4002 137.8 29.5002L137.9 30.0002H138.2V29.4002C138 29.3002 137.7 29.2002 137.4 29.2002C136.6 29.1002 136 29.7002 135.9 30.4002C135.8 31.2002 136.4 31.8002 137.1 31.9002C137.4 31.9002 137.7 31.9002 138 31.7002V31.5002C138 31.3002 138.1 31.0002 138.1 30.8002H138.3V30.6002H138.1Z" fill="#002885"/>
<path d="M139.5 30.5V30.3C139.5 30 139.4 29.6 139.4 29.3L139.7 29.2V29L138.5 29.1V29.3H138.9C138.9 29.6 139 30 139 30.3V30.5C139 30.8 139.1 31.2 139.1 31.5L138.7 31.6V31.8H139.1H139.6H139.9V31.6H139.6C139.6 31.2 139.5 30.9 139.5 30.5Z" fill="#002885"/>
<path d="M142.6 30.4L142 28.7001L142.3 28.5L142.2 28.3L141.8 28.5H141.7L141.3 28.6V28.8L141.8 28.7001L142.3 30.2001L140.5 28.9L139.8 29.1V29.3H140.1L140.8 31.3L140.5 31.5L140.6 31.7001L141.5 31.3V31.2001L141.1 31.3L140.5 29.5L142.5 31L142.7 30.9H142.8H142.7H142.8L142.6 30.4Z" fill="#002885"/>
<path d="M145.6 28.9001L145.5 28.8001L145.3 28.9001L143.2 27.6001L142.9 27.8001L143.7 30.2001L143.5 30.4001L143.6 30.5001L144.3 30.0001L144.2 29.9001L143.9 30.1001L143.7 29.5001L144.4 28.9001L144.9 29.2001L144.6 29.5001L144.7 29.6001L145 29.3001L145.4 29.0001L145.6 28.9001ZM143.5 29.3001L143.1 28.2001L144.1 28.9001L143.5 29.3001Z" fill="#002885"/>
<path d="M59.6263 79.625H60.6013C60.8347 81.2083 61.468 82.4583 62.5013 83.375C63.5347 84.275 64.8097 84.725 66.3263 84.725C66.943 84.725 67.5097 84.65 68.0263 84.5C68.543 84.35 68.9847 84.1416 69.3513 83.875C69.718 83.5916 70.0013 83.2666 70.2013 82.9C70.4013 82.5166 70.5013 82.0916 70.5013 81.625C70.5013 81.225 70.4347 80.8833 70.3013 80.6C70.1847 80.3 69.9513 80.0166 69.6013 79.75C69.2513 79.4666 68.768 79.1833 68.1513 78.9C67.5513 78.6166 66.768 78.2916 65.8013 77.925C63.8513 77.175 62.4097 76.3083 61.4763 75.325C60.543 74.325 60.0763 73.15 60.0763 71.8C60.0763 71.0166 60.2263 70.3 60.5263 69.65C60.8263 69 61.243 68.4416 61.7763 67.975C62.3263 67.5083 62.9763 67.15 63.7263 66.9C64.493 66.6333 65.3347 66.5 66.2513 66.5C67.1013 66.5 67.9013 66.6333 68.6513 66.9C69.4013 67.1666 70.143 67.5666 70.8763 68.1L71.3263 66.85H71.9263L72.2013 72.25H71.2263C70.8263 70.8833 70.2013 69.8416 69.3513 69.125C68.5013 68.3916 67.518 68.025 66.4013 68.025C65.368 68.025 64.5263 68.2833 63.8763 68.8C63.243 69.3 62.9263 69.9499 62.9263 70.75C62.9263 71.0999 62.9847 71.4166 63.1013 71.7C63.218 71.9666 63.4347 72.225 63.7513 72.475C64.068 72.725 64.5013 72.9833 65.0513 73.25C65.6013 73.5 66.3097 73.7833 67.1763 74.1C68.343 74.55 69.3347 75.0083 70.1513 75.475C70.9847 75.925 71.6597 76.4166 72.1763 76.95C72.7097 77.4666 73.1013 78.0166 73.3513 78.6C73.6013 79.1833 73.7263 79.825 73.7263 80.525C73.7263 81.375 73.543 82.15 73.1763 82.85C72.8097 83.55 72.293 84.15 71.6263 84.65C70.9763 85.15 70.193 85.5416 69.2763 85.825C68.3763 86.1083 67.3763 86.25 66.2763 86.25C65.2763 86.25 64.3763 86.1166 63.5763 85.85C62.7763 85.5666 61.9513 85.1166 61.1013 84.5L60.6013 86H60.0013L59.6263 79.625Z" fill="#002885"/>
<path d="M83.4535 78.875C82.0535 79.5083 80.9952 80.1 80.2785 80.65C79.5785 81.1833 79.2285 81.7416 79.2285 82.325C79.2285 82.8083 79.3618 83.1916 79.6285 83.475C79.8952 83.7583 80.2285 83.9 80.6285 83.9C81.0285 83.9 81.4035 83.8333 81.7535 83.7C82.1035 83.55 82.4035 83.3583 82.6535 83.125C82.9035 82.8916 83.0952 82.6166 83.2285 82.3C83.3785 81.9666 83.4535 81.6166 83.4535 81.25V78.875ZM83.4535 77.55V76.5C83.4535 75.5333 83.2785 74.8333 82.9285 74.4C82.5952 73.95 82.0702 73.725 81.3535 73.725C80.8702 73.725 80.5035 73.8583 80.2535 74.125C80.0035 74.375 79.7702 74.8 79.5535 75.4C79.4035 75.8166 79.1868 76.1416 78.9035 76.375C78.6368 76.6083 78.2618 76.725 77.7785 76.725C77.3118 76.725 76.9535 76.5833 76.7035 76.3C76.4535 76.0166 76.3285 75.6166 76.3285 75.1C76.3285 74.3 76.7618 73.6666 77.6285 73.2C78.5118 72.7333 79.8368 72.5 81.6035 72.5C83.4702 72.5 84.8035 72.8416 85.6035 73.525C86.4035 74.1916 86.8035 75.3166 86.8035 76.9V82.375C86.8035 83.7916 87.0868 84.5 87.6535 84.5C87.9702 84.5 88.2618 84.3916 88.5285 84.175L88.9035 84.9C88.6702 85.3166 88.3035 85.65 87.8035 85.9C87.3202 86.1333 86.7702 86.25 86.1535 86.25C85.3868 86.25 84.8035 86.0166 84.4035 85.5499C84.0035 85.0833 83.8035 84.425 83.8035 83.575H83.6785C83.1952 84.4416 82.5702 85.0999 81.8035 85.5499C81.0368 85.9999 80.1618 86.225 79.1785 86.225C78.1285 86.225 77.2868 85.9333 76.6535 85.35C76.0202 84.75 75.7035 83.975 75.7035 83.025C75.7035 82.2916 76.0285 81.6083 76.6785 80.975C77.3285 80.325 78.4118 79.6916 79.9285 79.075L83.4535 77.55Z" fill="#002885"/>
<path d="M95.634 81.925C95.634 82.6083 95.6506 83.15 95.684 83.55C95.734 83.9333 95.8256 84.2333 95.959 84.45C96.109 84.65 96.3256 84.7833 96.609 84.85C96.909 84.9166 97.309 84.9666 97.809 85V86H89.934V85C90.4173 84.9666 90.8006 84.9166 91.084 84.85C91.384 84.7833 91.609 84.65 91.759 84.45C91.9256 84.25 92.034 83.9666 92.084 83.6C92.134 83.2333 92.159 82.7333 92.159 82.1V78.975C92.159 77.9916 92.1423 77.2 92.109 76.6C92.0756 75.9833 92.034 75.5666 91.984 75.35C91.934 75.1333 91.8673 74.9583 91.784 74.825C91.7006 74.675 91.5756 74.5666 91.409 74.5C91.2423 74.4166 91.034 74.3666 90.784 74.35C90.534 74.3166 90.2173 74.3 89.834 74.3V73.45L94.659 72.5L94.984 74.7H95.084C95.634 74 96.284 73.4583 97.034 73.075C97.784 72.6916 98.609 72.5 99.509 72.5C100.576 72.5 101.434 72.65 102.084 72.95C102.751 73.2333 103.342 73.7166 103.859 74.4C104.142 74.7833 104.392 75.2833 104.609 75.9C104.826 76.5 104.934 77.3333 104.934 78.4V81.925C104.934 82.6083 104.951 83.15 104.984 83.55C105.034 83.9333 105.126 84.2333 105.259 84.45C105.409 84.65 105.626 84.7833 105.909 84.85C106.192 84.9166 106.576 84.9666 107.059 85V86H99.234V85C99.734 84.9833 100.126 84.9416 100.409 84.875C100.709 84.7916 100.934 84.65 101.084 84.45C101.234 84.25 101.334 83.9666 101.384 83.6C101.434 83.2166 101.459 82.7166 101.459 82.1V78.7C101.459 77.85 101.409 77.1333 101.309 76.55C101.209 75.9666 101.042 75.5 100.809 75.15C100.592 74.7833 100.301 74.525 99.934 74.375C99.5673 74.2083 99.109 74.125 98.559 74.125C98.0256 74.125 97.5673 74.275 97.184 74.575C96.8006 74.875 96.4673 75.2916 96.184 75.825C96.034 76.125 95.9006 76.5166 95.784 77C95.684 77.4666 95.634 77.9583 95.634 78.475V81.925Z" fill="#002885"/>
<path d="M107.998 74.125V73C108.998 72.7166 109.831 72.2916 110.498 71.725C111.181 71.1416 111.69 70.475 112.023 69.725H113.298V72.75H116.173V74.125H113.298V81.8C113.298 82.8333 113.406 83.5666 113.623 84C113.856 84.4333 114.24 84.65 114.773 84.65C115.423 84.65 115.915 84.35 116.248 83.75L116.773 84.475C116.306 85.6583 115.206 86.25 113.473 86.25C112.323 86.25 111.423 85.9833 110.773 85.45C110.14 84.9166 109.823 84.1666 109.823 83.2V74.125H107.998Z" fill="#002885"/>
<path d="M125.519 78.875C124.119 79.5083 123.061 80.1 122.344 80.65C121.644 81.1833 121.294 81.7416 121.294 82.325C121.294 82.8083 121.427 83.1916 121.694 83.475C121.961 83.7583 122.294 83.9 122.694 83.9C123.094 83.9 123.469 83.8333 123.819 83.7C124.169 83.55 124.469 83.3583 124.719 83.125C124.969 82.8916 125.161 82.6166 125.294 82.3C125.444 81.9666 125.519 81.6166 125.519 81.25V78.875ZM125.519 77.55V76.5C125.519 75.5333 125.344 74.8333 124.994 74.4C124.661 73.95 124.136 73.725 123.419 73.725C122.936 73.725 122.569 73.8583 122.319 74.125C122.069 74.375 121.836 74.8 121.619 75.4C121.469 75.8166 121.252 76.1416 120.969 76.375C120.702 76.6083 120.327 76.725 119.844 76.725C119.377 76.725 119.019 76.5833 118.769 76.3C118.519 76.0166 118.394 75.6166 118.394 75.1C118.394 74.3 118.827 73.6666 119.694 73.2C120.577 72.7333 121.902 72.5 123.669 72.5C125.536 72.5 126.869 72.8416 127.669 73.525C128.469 74.1916 128.869 75.3166 128.869 76.9V82.375C128.869 83.7916 129.152 84.5 129.719 84.5C130.036 84.5 130.327 84.3916 130.594 84.175L130.969 84.9C130.736 85.3166 130.369 85.65 129.869 85.9C129.386 86.1333 128.836 86.25 128.219 86.25C127.452 86.25 126.869 86.0166 126.469 85.5499C126.069 85.0833 125.869 84.425 125.869 83.575H125.744C125.261 84.4416 124.636 85.0999 123.869 85.5499C123.102 85.9999 122.227 86.225 121.244 86.225C120.194 86.225 119.352 85.9333 118.719 85.35C118.086 84.75 117.769 83.975 117.769 83.025C117.769 82.2916 118.094 81.6083 118.744 80.975C119.394 80.325 120.477 79.6916 121.994 79.075L125.519 77.55Z" fill="#002885"/>
<path d="M152.44 81.325L158.215 66.75H165.515V67.75C164.965 67.75 164.515 67.8083 164.165 67.925C163.832 68.025 163.573 68.2166 163.39 68.5C163.207 68.7833 163.082 69.175 163.015 69.6749C162.965 70.1583 162.94 70.775 162.94 71.525V81.225C162.94 82.0583 162.973 82.7166 163.04 83.2C163.107 83.6833 163.24 84.0583 163.44 84.325C163.64 84.5916 163.923 84.7666 164.29 84.85C164.673 84.9333 165.173 84.9833 165.79 85V86H156.39V85C157.007 84.9833 157.498 84.9333 157.865 84.85C158.248 84.75 158.54 84.575 158.74 84.325C158.957 84.075 159.098 83.725 159.165 83.275C159.232 82.8083 159.265 82.1833 159.265 81.4V69.7H159.14L152.415 86.25H150.565L143.615 69.7H143.515V81.225C143.515 82.0583 143.548 82.7166 143.615 83.2C143.682 83.6833 143.815 84.0583 144.015 84.325C144.215 84.5916 144.498 84.7666 144.865 84.85C145.248 84.9333 145.748 84.9833 146.365 85V86H138.665V85C139.282 84.9833 139.782 84.9333 140.165 84.85C140.548 84.75 140.84 84.575 141.04 84.325C141.257 84.075 141.398 83.725 141.465 83.275C141.532 82.8083 141.565 82.1833 141.565 81.4V71.35C141.565 70.65 141.532 70.0666 141.465 69.6C141.398 69.1333 141.273 68.7666 141.09 68.5C140.907 68.2166 140.64 68.025 140.29 67.925C139.957 67.8083 139.507 67.75 138.94 67.75V66.75H146.515L152.34 81.325H152.44Z" fill="#002885"/>
<path d="M175.128 78.875C173.728 79.5083 172.67 80.1 171.953 80.65C171.253 81.1833 170.903 81.7416 170.903 82.325C170.903 82.8083 171.037 83.1916 171.303 83.475C171.57 83.7583 171.903 83.9 172.303 83.9C172.703 83.9 173.078 83.8333 173.428 83.7C173.778 83.55 174.078 83.3583 174.328 83.125C174.578 82.8916 174.77 82.6166 174.903 82.3C175.053 81.9666 175.128 81.6166 175.128 81.25V78.875ZM175.128 77.55V76.5C175.128 75.5333 174.953 74.8333 174.603 74.4C174.27 73.95 173.745 73.725 173.028 73.725C172.545 73.725 172.178 73.8583 171.928 74.125C171.678 74.375 171.445 74.8 171.228 75.4C171.078 75.8166 170.862 76.1416 170.578 76.375C170.312 76.6083 169.937 76.725 169.453 76.725C168.987 76.725 168.628 76.5833 168.378 76.3C168.128 76.0166 168.003 75.6166 168.003 75.1C168.003 74.3 168.437 73.6666 169.303 73.2C170.187 72.7333 171.512 72.5 173.278 72.5C175.145 72.5 176.478 72.8416 177.278 73.525C178.078 74.1916 178.478 75.3166 178.478 76.9V82.375C178.478 83.7916 178.762 84.5 179.328 84.5C179.645 84.5 179.937 84.3916 180.203 84.175L180.578 84.9C180.345 85.3166 179.978 85.65 179.478 85.9C178.995 86.1333 178.445 86.25 177.828 86.25C177.062 86.25 176.478 86.0166 176.078 85.5499C175.678 85.0833 175.478 84.425 175.478 83.575H175.353C174.87 84.4416 174.245 85.0999 173.478 85.5499C172.712 85.9999 171.837 86.225 170.853 86.225C169.803 86.225 168.962 85.9333 168.328 85.35C167.695 84.75 167.378 83.975 167.378 83.025C167.378 82.2916 167.703 81.6083 168.353 80.975C169.003 80.325 170.087 79.6916 171.603 79.075L175.128 77.55Z" fill="#002885"/>
<path d="M187.334 82.125C187.334 82.775 187.359 83.2916 187.409 83.675C187.475 84.0416 187.6 84.325 187.784 84.525C187.967 84.725 188.234 84.8583 188.584 84.9249C188.934 84.9749 189.4 85 189.984 85V86H181.634V85C182.134 84.9666 182.534 84.9166 182.834 84.85C183.134 84.7833 183.359 84.65 183.509 84.45C183.659 84.25 183.75 83.9666 183.784 83.6C183.834 83.2166 183.859 82.7083 183.859 82.075V79.025C183.859 77.9916 183.834 77.1666 183.784 76.55C183.734 75.9333 183.625 75.4583 183.459 75.125C183.292 74.7916 183.05 74.575 182.734 74.475C182.434 74.3583 182.034 74.3 181.534 74.3V73.425L186.534 72.5L186.934 75.375H187.034C187.484 74.4916 188.075 73.7916 188.809 73.275C189.542 72.7583 190.317 72.5 191.134 72.5C191.767 72.5 192.284 72.6583 192.684 72.975C193.084 73.2916 193.284 73.6916 193.284 74.175C193.284 74.7083 193.125 75.1583 192.809 75.525C192.509 75.8916 192.092 76.075 191.559 76.075C191.309 76.075 191.084 76.025 190.884 75.925C190.684 75.825 190.5 75.7166 190.334 75.6C190.184 75.4666 190.025 75.35 189.859 75.25C189.709 75.1333 189.55 75.075 189.384 75.075C189.067 75.075 188.767 75.2833 188.484 75.7C188.2 76.1166 187.967 76.675 187.784 77.375C187.65 77.875 187.542 78.4416 187.459 79.075C187.375 79.6916 187.334 80.3083 187.334 80.925V82.125Z" fill="#002885"/>
<path d="M199.76 81.9C199.76 82.5666 199.785 83.1 199.835 83.5C199.885 83.9 199.985 84.2083 200.135 84.4249C200.285 84.6416 200.502 84.7916 200.785 84.875C201.068 84.9416 201.452 84.9833 201.935 85V86H194.06V85C194.527 84.9833 194.902 84.9333 195.185 84.85C195.485 84.75 195.71 84.6 195.86 84.4C196.027 84.1833 196.135 83.8916 196.185 83.525C196.252 83.1416 196.285 82.6583 196.285 82.075V79C196.285 78.0333 196.268 77.2416 196.235 76.625C196.202 75.9916 196.16 75.5583 196.11 75.325C196.027 74.9083 195.835 74.6333 195.535 74.5C195.252 74.3666 194.727 74.3 193.96 74.3V73.45L199.76 72.5V81.9ZM196.085 67.2C196.085 66.65 196.268 66.1916 196.635 65.825C197.018 65.4416 197.477 65.25 198.01 65.25C198.56 65.25 199.018 65.4416 199.385 65.825C199.768 66.1916 199.96 66.65 199.96 67.2C199.96 67.7333 199.768 68.1916 199.385 68.575C199.018 68.9416 198.56 69.125 198.01 69.125C197.477 69.125 197.018 68.9416 196.635 68.575C196.268 68.1916 196.085 67.7333 196.085 67.2Z" fill="#002885"/>
<path d="M210.968 78.875C209.568 79.5083 208.51 80.1 207.793 80.65C207.093 81.1833 206.743 81.7416 206.743 82.325C206.743 82.8083 206.876 83.1916 207.143 83.475C207.41 83.7583 207.743 83.9 208.143 83.9C208.543 83.9 208.918 83.8333 209.268 83.7C209.618 83.55 209.918 83.3583 210.168 83.125C210.418 82.8916 210.61 82.6166 210.743 82.3C210.893 81.9666 210.968 81.6166 210.968 81.25V78.875ZM210.968 77.55V76.5C210.968 75.5333 210.793 74.8333 210.443 74.4C210.11 73.95 209.585 73.725 208.868 73.725C208.385 73.725 208.018 73.8583 207.768 74.125C207.518 74.375 207.285 74.8 207.068 75.4C206.918 75.8166 206.701 76.1416 206.418 76.375C206.151 76.6083 205.776 76.725 205.293 76.725C204.826 76.725 204.468 76.5833 204.218 76.3C203.968 76.0166 203.843 75.6166 203.843 75.1C203.843 74.3 204.276 73.6666 205.143 73.2C206.026 72.7333 207.351 72.5 209.118 72.5C210.985 72.5 212.318 72.8416 213.118 73.525C213.918 74.1916 214.318 75.3166 214.318 76.9V82.375C214.318 83.7916 214.601 84.5 215.168 84.5C215.485 84.5 215.776 84.3916 216.043 84.175L216.418 84.9C216.185 85.3166 215.818 85.65 215.318 85.9C214.835 86.1333 214.285 86.25 213.668 86.25C212.901 86.25 212.318 86.0166 211.918 85.5499C211.518 85.0833 211.318 84.425 211.318 83.575H211.193C210.71 84.4416 210.085 85.0999 209.318 85.5499C208.551 85.9999 207.676 86.225 206.693 86.225C205.643 86.225 204.801 85.9333 204.168 85.35C203.535 84.75 203.218 83.975 203.218 83.025C203.218 82.2916 203.543 81.6083 204.193 80.975C204.843 80.325 205.926 79.6916 207.443 79.075L210.968 77.55Z" fill="#002885"/>
<path d="M121.963 52.3H122.243L122.333 54.6H121.963C121.817 54.0133 121.533 53.5533 121.113 53.22C120.693 52.8866 120.187 52.72 119.593 52.72C119.187 52.72 118.823 52.8 118.503 52.96C118.183 53.12 117.913 53.35 117.693 53.65C117.473 53.95 117.303 54.3166 117.183 54.75C117.07 55.1833 117.013 55.6733 117.013 56.22C117.013 57.2933 117.237 58.12 117.683 58.7C118.13 59.2733 118.777 59.56 119.623 59.56C120.91 59.56 121.737 58.8766 122.103 57.51H122.513V60H122.163L121.933 59.21C121.233 59.8033 120.387 60.1 119.393 60.1C118.827 60.1 118.313 60.01 117.853 59.83C117.4 59.65 117.01 59.3966 116.683 59.07C116.363 58.7366 116.113 58.3333 115.933 57.86C115.76 57.3866 115.673 56.86 115.673 56.28C115.673 55.6733 115.767 55.12 115.953 54.62C116.14 54.12 116.4 53.69 116.733 53.33C117.073 52.97 117.477 52.6933 117.943 52.5C118.417 52.3 118.937 52.2 119.503 52.2C119.903 52.2 120.28 52.2566 120.633 52.37C120.987 52.4833 121.37 52.6666 121.783 52.92L121.963 52.3Z" fill="#002885"/>
<path d="M127.971 57.21H125.301C125.187 57.4833 125.091 57.7266 125.011 57.94C124.931 58.1466 124.864 58.3266 124.811 58.48C124.764 58.6333 124.731 58.7633 124.711 58.87C124.691 58.9766 124.681 59.0633 124.681 59.13C124.681 59.3166 124.741 59.4466 124.861 59.52C124.981 59.5866 125.181 59.62 125.461 59.62V60H123.031V59.62C123.184 59.6 123.314 59.5733 123.421 59.54C123.534 59.5066 123.631 59.46 123.711 59.4C123.797 59.34 123.871 59.2633 123.931 59.17C123.997 59.07 124.061 58.95 124.121 58.81L126.721 52.3H127.151L129.421 57.94C129.574 58.3133 129.707 58.6133 129.821 58.84C129.934 59.06 130.044 59.2266 130.151 59.34C130.257 59.4533 130.371 59.5266 130.491 59.56C130.617 59.5933 130.767 59.61 130.941 59.61V60H127.681V59.61C128.034 59.61 128.277 59.5766 128.411 59.51C128.544 59.4433 128.611 59.3333 128.611 59.18C128.611 59.1133 128.607 59.0533 128.601 59C128.594 58.94 128.581 58.8766 128.561 58.81C128.547 58.7433 128.524 58.67 128.491 58.59C128.464 58.5033 128.427 58.4033 128.381 58.29L127.971 57.21ZM125.501 56.71H127.781L126.671 53.76L125.501 56.71Z" fill="#002885"/>
<path d="M137.395 54.23C137.395 54.5833 137.339 54.9 137.225 55.18C137.112 55.46 136.932 55.6966 136.685 55.89C136.445 56.0833 136.129 56.2333 135.735 56.34C135.349 56.4466 134.875 56.5 134.315 56.5H133.415V58.43C133.415 58.6766 133.429 58.88 133.455 59.04C133.489 59.1933 133.552 59.3133 133.645 59.4C133.745 59.4866 133.885 59.5466 134.065 59.58C134.252 59.6066 134.495 59.62 134.795 59.62V60H131.265V59.62C131.499 59.6133 131.685 59.5933 131.825 59.56C131.972 59.5266 132.085 59.47 132.165 59.39C132.245 59.31 132.299 59.1966 132.325 59.05C132.352 58.9033 132.365 58.7133 132.365 58.48V53.82C132.365 53.5866 132.352 53.4 132.325 53.26C132.305 53.1133 132.259 53 132.185 52.92C132.119 52.8333 132.019 52.7766 131.885 52.75C131.752 52.7166 131.579 52.6933 131.365 52.68V52.3H134.505C135.425 52.3 136.135 52.47 136.635 52.81C137.142 53.15 137.395 53.6233 137.395 54.23ZM133.415 56H134.125C134.792 56 135.285 55.8733 135.605 55.62C135.932 55.36 136.095 54.9366 136.095 54.35C136.095 53.7833 135.965 53.38 135.705 53.14C135.452 52.8933 135.052 52.77 134.505 52.77H133.585C133.472 52.77 133.415 52.8266 133.415 52.94V56Z" fill="#002885"/>
<path d="M140.281 55.77C140.641 55.77 140.941 55.75 141.181 55.71C141.427 55.6633 141.621 55.5933 141.761 55.5C141.907 55.4066 142.011 55.2866 142.071 55.14C142.137 54.9933 142.171 54.82 142.171 54.62H142.521V57.35H142.171C142.171 57.15 142.141 56.9766 142.081 56.83C142.027 56.6833 141.927 56.5633 141.781 56.47C141.641 56.37 141.447 56.2966 141.201 56.25C140.961 56.1966 140.654 56.17 140.281 56.17V58.43C140.281 58.65 140.307 58.8333 140.361 58.98C140.414 59.12 140.504 59.2366 140.631 59.33C140.764 59.4166 140.937 59.48 141.151 59.52C141.364 59.5533 141.627 59.57 141.941 59.57C142.294 59.57 142.594 59.5466 142.841 59.5C143.087 59.4466 143.294 59.36 143.461 59.24C143.627 59.12 143.761 58.9633 143.861 58.77C143.961 58.57 144.044 58.3233 144.111 58.03H144.491L144.341 60H138.131V59.62C138.364 59.6133 138.551 59.5933 138.691 59.56C138.837 59.5266 138.951 59.47 139.031 59.39C139.111 59.31 139.164 59.1966 139.191 59.05C139.217 58.9033 139.231 58.7133 139.231 58.48V53.82C139.231 53.5866 139.217 53.4 139.191 53.26C139.171 53.1133 139.124 53 139.051 52.92C138.984 52.8333 138.884 52.7766 138.751 52.75C138.617 52.7166 138.444 52.6933 138.231 52.68V52.3H144.011L144.101 54.06H143.751C143.711 53.7933 143.644 53.5766 143.551 53.41C143.464 53.2366 143.341 53.1 143.181 53C143.027 52.9 142.831 52.83 142.591 52.79C142.351 52.75 142.061 52.73 141.721 52.73H140.451C140.337 52.73 140.281 52.7866 140.281 52.9V55.77Z" fill="#002885"/>
<path d="M151.846 60H145.386V59.62C145.62 59.6133 145.807 59.5933 145.947 59.56C146.093 59.5266 146.206 59.47 146.286 59.39C146.366 59.31 146.42 59.1966 146.447 59.05C146.473 58.9033 146.486 58.7133 146.486 58.48V53.82C146.486 53.5866 146.473 53.4 146.447 53.26C146.427 53.1133 146.38 53 146.306 52.92C146.24 52.8333 146.14 52.7766 146.007 52.75C145.873 52.7166 145.7 52.6933 145.486 52.68V52.3H148.526V52.68C148.313 52.6866 148.14 52.7066 148.007 52.74C147.88 52.7733 147.78 52.8333 147.706 52.92C147.64 53.0066 147.593 53.1266 147.566 53.28C147.546 53.4333 147.536 53.6366 147.536 53.89V58.2C147.536 58.48 147.563 58.71 147.617 58.89C147.677 59.0633 147.773 59.2 147.907 59.3C148.047 59.3933 148.23 59.46 148.456 59.5C148.683 59.5333 148.97 59.55 149.316 59.55C149.696 59.55 150.016 59.53 150.276 59.49C150.536 59.4433 150.753 59.3666 150.926 59.26C151.106 59.1466 151.246 58.9933 151.346 58.8C151.453 58.6 151.543 58.3433 151.617 58.03H151.996L151.846 60Z" fill="#002885"/>
<path d="M157.082 57.21H154.412C154.299 57.4833 154.202 57.7266 154.122 57.94C154.042 58.1466 153.975 58.3266 153.922 58.48C153.875 58.6333 153.842 58.7633 153.822 58.87C153.802 58.9766 153.792 59.0633 153.792 59.13C153.792 59.3166 153.852 59.4466 153.972 59.52C154.092 59.5866 154.292 59.62 154.572 59.62V60H152.142V59.62C152.295 59.6 152.425 59.5733 152.532 59.54C152.645 59.5066 152.742 59.46 152.822 59.4C152.909 59.34 152.982 59.2633 153.042 59.17C153.109 59.07 153.172 58.95 153.232 58.81L155.832 52.3H156.262L158.532 57.94C158.685 58.3133 158.819 58.6133 158.932 58.84C159.045 59.06 159.155 59.2266 159.262 59.34C159.369 59.4533 159.482 59.5266 159.602 59.56C159.729 59.5933 159.879 59.61 160.052 59.61V60H156.792V59.61C157.145 59.61 157.389 59.5766 157.522 59.51C157.655 59.4433 157.722 59.3333 157.722 59.18C157.722 59.1133 157.719 59.0533 157.712 59C157.705 58.94 157.692 58.8766 157.672 58.81C157.659 58.7433 157.635 58.67 157.602 58.59C157.575 58.5033 157.539 58.4033 157.492 58.29L157.082 57.21ZM154.612 56.71H156.892L155.782 53.76L154.612 56.71Z" fill="#002885"/>
<path d="M102.96 104.824H102.904C102.568 105.3 102.208 105.641 101.826 105.846C101.452 106.042 101.009 106.14 100.496 106.14C99.9636 106.14 99.4736 106.047 99.0256 105.86C98.5869 105.664 98.2042 105.398 97.8776 105.062C97.5602 104.717 97.3082 104.306 97.1216 103.83C96.9442 103.354 96.8556 102.836 96.8556 102.276C96.8556 101.725 96.9442 101.217 97.1216 100.75C97.3082 100.274 97.5602 99.868 97.8776 99.532C98.2042 99.1866 98.5916 98.9206 99.0396 98.734C99.4876 98.538 99.9729 98.44 100.496 98.44C100.944 98.44 101.34 98.5146 101.686 98.664C102.04 98.8133 102.381 99.0513 102.708 99.378V97.95C102.708 97.418 102.698 96.9746 102.68 96.6199C102.67 96.2653 102.652 96.0226 102.624 95.892C102.577 95.6866 102.446 95.542 102.232 95.458C102.017 95.374 101.667 95.332 101.182 95.332V94.9119L104.052 94.38V102.458C104.052 103.102 104.056 103.634 104.066 104.054C104.075 104.465 104.103 104.759 104.15 104.936C104.178 105.048 104.21 105.141 104.248 105.216C104.294 105.291 104.355 105.351 104.43 105.398C104.514 105.435 104.621 105.463 104.752 105.482C104.892 105.501 105.069 105.51 105.284 105.51V105.986L102.96 106.14V104.824ZM102.68 101.73C102.68 101.245 102.652 100.876 102.596 100.624C102.549 100.372 102.451 100.153 102.302 99.966C102.087 99.686 101.812 99.476 101.476 99.336C101.149 99.1866 100.822 99.1119 100.496 99.1119C99.8236 99.1119 99.3102 99.392 98.9556 99.952C98.6102 100.503 98.4376 101.254 98.4376 102.206C98.4376 102.701 98.4796 103.149 98.5636 103.55C98.6569 103.951 98.7876 104.297 98.9556 104.586C99.1329 104.866 99.3476 105.085 99.5996 105.244C99.8609 105.393 100.16 105.468 100.496 105.468C100.664 105.468 100.832 105.449 101 105.412C101.177 105.375 101.345 105.319 101.504 105.244C101.672 105.16 101.826 105.067 101.966 104.964C102.106 104.852 102.222 104.726 102.316 104.586C102.446 104.381 102.54 104.133 102.596 103.844C102.652 103.555 102.68 103.158 102.68 102.654V101.73Z" fill="#002885"/>
<path d="M110.517 101.856C109.985 102.061 109.532 102.262 109.159 102.458C108.795 102.654 108.501 102.85 108.277 103.046C108.053 103.242 107.89 103.438 107.787 103.634C107.694 103.83 107.647 104.031 107.647 104.236C107.647 104.544 107.75 104.796 107.955 104.992C108.16 105.188 108.431 105.286 108.767 105.286C109.01 105.286 109.234 105.225 109.439 105.104C109.654 104.983 109.84 104.819 109.999 104.614C110.158 104.399 110.284 104.152 110.377 103.872C110.47 103.583 110.517 103.279 110.517 102.962V101.856ZM110.517 101.254V100.68C110.517 99.5413 110.032 98.972 109.061 98.972C108.902 98.972 108.767 98.986 108.655 99.014C108.543 99.042 108.45 99.0886 108.375 99.1539C108.3 99.2193 108.23 99.3126 108.165 99.434C108.109 99.5553 108.053 99.7046 107.997 99.882C107.894 100.153 107.792 100.335 107.689 100.428C107.596 100.512 107.455 100.554 107.269 100.554C106.802 100.554 106.569 100.321 106.569 99.854C106.569 99.406 106.807 99.0606 107.283 98.818C107.759 98.566 108.436 98.44 109.313 98.44C110.246 98.44 110.909 98.608 111.301 98.944C111.693 99.2706 111.889 99.8306 111.889 100.624V103.76C111.889 104.824 112.099 105.356 112.519 105.356C112.65 105.356 112.776 105.342 112.897 105.314C113.018 105.277 113.121 105.188 113.205 105.048L113.401 105.384C113.289 105.599 113.084 105.781 112.785 105.93C112.486 106.07 112.174 106.14 111.847 106.14C111.436 106.14 111.128 106.009 110.923 105.748C110.727 105.487 110.629 105.118 110.629 104.642H110.559C110.316 105.099 109.98 105.463 109.551 105.734C109.122 105.995 108.646 106.126 108.123 106.126C107.535 106.126 107.073 105.977 106.737 105.678C106.401 105.379 106.233 104.978 106.233 104.474C106.233 104.25 106.27 104.035 106.345 103.83C106.429 103.625 106.56 103.429 106.737 103.242C106.914 103.055 107.148 102.873 107.437 102.696C107.726 102.509 108.081 102.323 108.501 102.136L110.517 101.254Z" fill="#002885"/>
<path d="M114.587 106H114.279V103.592H114.629C114.993 104.908 115.655 105.566 116.617 105.566C116.99 105.566 117.284 105.477 117.499 105.3C117.723 105.113 117.835 104.833 117.835 104.46C117.835 104.32 117.811 104.203 117.765 104.11C117.727 104.007 117.648 103.905 117.527 103.802C117.415 103.69 117.251 103.564 117.037 103.424C116.831 103.284 116.556 103.107 116.211 102.892C115.893 102.696 115.618 102.514 115.385 102.346C115.151 102.178 114.955 102.01 114.797 101.842C114.638 101.665 114.517 101.478 114.433 101.282C114.358 101.086 114.321 100.857 114.321 100.596C114.321 100.279 114.372 99.9893 114.475 99.728C114.587 99.4573 114.736 99.2286 114.923 99.042C115.109 98.8553 115.329 98.7106 115.581 98.608C115.833 98.496 116.108 98.44 116.407 98.44C116.659 98.44 116.92 98.482 117.191 98.566C117.461 98.6406 117.699 98.7433 117.905 98.874L118.185 98.58H118.451V100.596H118.087C117.881 100.027 117.657 99.6206 117.415 99.378C117.172 99.1353 116.873 99.014 116.519 99.014C116.201 99.014 115.945 99.0979 115.749 99.2659C115.562 99.4339 115.469 99.6673 115.469 99.966C115.469 100.125 115.492 100.265 115.539 100.386C115.595 100.498 115.679 100.61 115.791 100.722C115.903 100.834 116.043 100.951 116.211 101.072C116.388 101.184 116.598 101.315 116.841 101.464C117.242 101.716 117.583 101.94 117.863 102.136C118.152 102.332 118.385 102.528 118.563 102.724C118.74 102.911 118.871 103.107 118.955 103.312C119.039 103.517 119.081 103.751 119.081 104.012C119.081 104.675 118.866 105.197 118.437 105.58C118.007 105.953 117.443 106.14 116.743 106.14C116.015 106.14 115.389 105.93 114.867 105.51L114.587 106Z" fill="#002885"/>
<path d="M129.122 103.858L131.586 97.782C131.726 97.4366 131.824 97.166 131.88 96.97C131.936 96.774 131.964 96.5966 131.964 96.438C131.964 96.186 131.884 96.0086 131.726 95.906C131.576 95.8033 131.292 95.7519 130.872 95.7519V95.22H134.274V95.7519C134.059 95.7799 133.872 95.8173 133.714 95.864C133.564 95.9106 133.429 95.976 133.308 96.06C133.196 96.144 133.093 96.256 133 96.396C132.916 96.5266 132.832 96.69 132.748 96.886L128.954 106.14H128.464L124.852 97.4179C124.73 97.1379 124.609 96.8953 124.488 96.69C124.376 96.4846 124.25 96.3166 124.11 96.186C123.97 96.0553 123.811 95.9573 123.634 95.892C123.456 95.8266 123.246 95.7846 123.004 95.766V95.22H127.568V95.766C127.306 95.766 127.092 95.7799 126.924 95.8079C126.765 95.8266 126.639 95.864 126.546 95.92C126.452 95.9666 126.387 96.0273 126.35 96.102C126.312 96.1766 126.294 96.2606 126.294 96.354C126.294 96.4846 126.317 96.6386 126.364 96.816C126.41 96.984 126.499 97.2313 126.63 97.5579L129.122 103.858Z" fill="#002885"/>
<path d="M137.233 103.774C137.233 104.138 137.247 104.432 137.275 104.656C137.312 104.871 137.378 105.043 137.471 105.174C137.564 105.295 137.695 105.379 137.863 105.426C138.031 105.473 138.255 105.501 138.535 105.51V106H134.517V105.51C134.797 105.501 135.026 105.473 135.203 105.426C135.38 105.37 135.516 105.286 135.609 105.174C135.712 105.053 135.777 104.889 135.805 104.684C135.842 104.469 135.861 104.199 135.861 103.872V102.08C135.861 101.539 135.852 101.095 135.833 100.75C135.824 100.395 135.8 100.153 135.763 100.022C135.716 99.8073 135.609 99.6626 135.441 99.588C135.273 99.504 134.956 99.462 134.489 99.462V98.972L137.233 98.44V103.774ZM135.623 95.5979C135.623 95.3553 135.707 95.1499 135.875 94.9819C136.043 94.8139 136.248 94.7299 136.491 94.7299C136.734 94.7299 136.939 94.8139 137.107 94.9819C137.275 95.1499 137.359 95.3553 137.359 95.5979C137.359 95.8406 137.275 96.046 137.107 96.214C136.939 96.382 136.734 96.466 136.491 96.466C136.248 96.466 136.043 96.382 135.875 96.214C135.707 96.046 135.623 95.8406 135.623 95.5979Z" fill="#002885"/>
<path d="M139.372 99.462V98.944C139.867 98.6546 140.254 98.3653 140.534 98.076C140.814 97.7866 141.029 97.4413 141.178 97.04H141.584V98.804H143.46V99.462H141.584V103.718C141.584 104.045 141.598 104.32 141.626 104.544C141.664 104.768 141.72 104.95 141.794 105.09C141.869 105.221 141.967 105.314 142.088 105.37C142.21 105.426 142.364 105.454 142.55 105.454C142.784 105.454 142.98 105.407 143.138 105.314C143.306 105.211 143.47 105.043 143.628 104.81L143.978 105.076C143.848 105.421 143.619 105.687 143.292 105.874C142.975 106.051 142.578 106.14 142.102 106.14C141.486 106.14 141.015 105.995 140.688 105.706C140.371 105.407 140.212 104.983 140.212 104.432V99.462H139.372Z" fill="#002885"/>
<path d="M148.653 98.44C149.185 98.44 149.689 98.538 150.165 98.734C150.641 98.9206 151.057 99.182 151.411 99.518C151.775 99.854 152.06 100.255 152.265 100.722C152.48 101.179 152.587 101.683 152.587 102.234C152.587 102.803 152.48 103.326 152.265 103.802C152.06 104.278 151.775 104.689 151.411 105.034C151.057 105.379 150.641 105.65 150.165 105.846C149.689 106.042 149.185 106.14 148.653 106.14C148.131 106.14 147.631 106.047 147.155 105.86C146.689 105.664 146.278 105.393 145.923 105.048C145.569 104.703 145.289 104.292 145.083 103.816C144.878 103.331 144.775 102.803 144.775 102.234C144.775 101.683 144.878 101.175 145.083 100.708C145.289 100.241 145.569 99.84 145.923 99.504C146.278 99.168 146.689 98.9066 147.155 98.72C147.631 98.5333 148.131 98.44 148.653 98.44ZM148.653 99.1119C148.308 99.1119 147.991 99.1866 147.701 99.336C147.421 99.4853 147.179 99.6999 146.973 99.9799C146.777 100.251 146.623 100.582 146.511 100.974C146.409 101.357 146.357 101.781 146.357 102.248C146.357 102.733 146.409 103.172 146.511 103.564C146.623 103.956 146.777 104.292 146.973 104.572C147.179 104.843 147.421 105.053 147.701 105.202C147.981 105.351 148.299 105.426 148.653 105.426C149.008 105.426 149.33 105.351 149.619 105.202C149.909 105.053 150.156 104.838 150.361 104.558C150.567 104.278 150.725 103.942 150.837 103.55C150.949 103.158 151.005 102.724 151.005 102.248C151.005 101.781 150.949 101.357 150.837 100.974C150.725 100.591 150.567 100.265 150.361 99.9939C150.156 99.7139 149.909 99.4993 149.619 99.35C149.33 99.1913 149.008 99.1119 148.653 99.1119ZM147.393 96.886L149.213 95.22C149.549 94.912 149.862 94.7579 150.151 94.7579C150.31 94.7579 150.436 94.7999 150.529 94.8839C150.632 94.9679 150.683 95.0893 150.683 95.248C150.683 95.3973 150.618 95.5326 150.487 95.6539C150.366 95.7659 150.193 95.8733 149.969 95.976L148.051 96.886H147.393Z" fill="#002885"/>
<path d="M156.372 103.774C156.372 104.157 156.381 104.46 156.4 104.684C156.418 104.908 156.465 105.081 156.54 105.202C156.624 105.314 156.74 105.389 156.89 105.426C157.039 105.463 157.249 105.491 157.52 105.51V106H153.796V105.51C154.066 105.501 154.281 105.477 154.44 105.44C154.598 105.393 154.72 105.314 154.804 105.202C154.888 105.09 154.939 104.931 154.958 104.726C154.986 104.511 155 104.227 155 103.872V102.234C155 101.599 154.99 101.105 154.972 100.75C154.962 100.395 154.916 100.134 154.832 99.966C154.757 99.7979 154.636 99.7 154.468 99.672C154.3 99.6346 154.066 99.616 153.768 99.616V99.1259L156.218 98.594L156.414 100.33H156.47C156.591 100.05 156.74 99.7933 156.918 99.56C157.104 99.3266 157.305 99.1306 157.52 98.972C157.734 98.804 157.958 98.6733 158.192 98.58C158.425 98.4866 158.663 98.44 158.906 98.44C159.204 98.44 159.438 98.5146 159.606 98.664C159.783 98.804 159.872 98.9953 159.872 99.238C159.872 99.462 159.802 99.6393 159.662 99.77C159.522 99.8913 159.321 99.952 159.06 99.952C158.91 99.952 158.784 99.9333 158.682 99.896C158.579 99.8586 158.486 99.8213 158.402 99.784C158.327 99.7373 158.252 99.6953 158.178 99.658C158.112 99.6206 158.038 99.602 157.954 99.602C157.702 99.602 157.45 99.7653 157.198 100.092C156.946 100.409 156.75 100.815 156.61 101.31C156.535 101.581 156.474 101.889 156.428 102.234C156.39 102.57 156.372 102.925 156.372 103.298V103.774Z" fill="#002885"/>
<path d="M163.128 103.774C163.128 104.138 163.142 104.432 163.17 104.656C163.207 104.871 163.272 105.043 163.366 105.174C163.459 105.295 163.59 105.379 163.758 105.426C163.926 105.473 164.15 105.501 164.43 105.51V106H160.412V105.51C160.692 105.501 160.92 105.473 161.098 105.426C161.275 105.37 161.41 105.286 161.504 105.174C161.606 105.053 161.672 104.889 161.7 104.684C161.737 104.469 161.756 104.199 161.756 103.872V102.08C161.756 101.539 161.746 101.095 161.728 100.75C161.718 100.395 161.695 100.153 161.658 100.022C161.611 99.8073 161.504 99.6626 161.336 99.588C161.168 99.504 160.85 99.462 160.384 99.462V98.972L163.128 98.44V103.774ZM161.518 95.5979C161.518 95.3553 161.602 95.1499 161.77 94.9819C161.938 94.8139 162.143 94.7299 162.386 94.7299C162.628 94.7299 162.834 94.8139 163.002 94.9819C163.17 95.1499 163.254 95.3553 163.254 95.5979C163.254 95.8406 163.17 96.046 163.002 96.214C162.834 96.382 162.628 96.466 162.386 96.466C162.143 96.466 161.938 96.382 161.77 96.214C161.602 96.046 161.518 95.8406 161.518 95.5979Z" fill="#002885"/>
<path d="M169.593 101.856C169.061 102.061 168.608 102.262 168.235 102.458C167.871 102.654 167.577 102.85 167.353 103.046C167.129 103.242 166.966 103.438 166.863 103.634C166.77 103.83 166.723 104.031 166.723 104.236C166.723 104.544 166.826 104.796 167.031 104.992C167.236 105.188 167.507 105.286 167.843 105.286C168.086 105.286 168.31 105.225 168.515 105.104C168.73 104.983 168.916 104.819 169.075 104.614C169.234 104.399 169.36 104.152 169.453 103.872C169.546 103.583 169.593 103.279 169.593 102.962V101.856ZM169.593 101.254V100.68C169.593 99.5413 169.108 98.972 168.137 98.972C167.978 98.972 167.843 98.986 167.731 99.014C167.619 99.042 167.526 99.0886 167.451 99.1539C167.376 99.2193 167.306 99.3126 167.241 99.434C167.185 99.5553 167.129 99.7046 167.073 99.882C166.97 100.153 166.868 100.335 166.765 100.428C166.672 100.512 166.532 100.554 166.345 100.554C165.878 100.554 165.645 100.321 165.645 99.854C165.645 99.406 165.883 99.0606 166.359 98.818C166.835 98.566 167.512 98.44 168.389 98.44C169.322 98.44 169.985 98.608 170.377 98.944C170.769 99.2706 170.965 99.8306 170.965 100.624V103.76C170.965 104.824 171.175 105.356 171.595 105.356C171.726 105.356 171.852 105.342 171.973 105.314C172.094 105.277 172.197 105.188 172.281 105.048L172.477 105.384C172.365 105.599 172.16 105.781 171.861 105.93C171.562 106.07 171.25 106.14 170.923 106.14C170.512 106.14 170.204 106.009 169.999 105.748C169.803 105.487 169.705 105.118 169.705 104.642H169.635C169.392 105.099 169.056 105.463 168.627 105.734C168.198 105.995 167.722 106.126 167.199 106.126C166.611 106.126 166.149 105.977 165.813 105.678C165.477 105.379 165.309 104.978 165.309 104.474C165.309 104.25 165.346 104.035 165.421 103.83C165.505 103.625 165.636 103.429 165.813 103.242C165.99 103.055 166.224 102.873 166.513 102.696C166.802 102.509 167.157 102.323 167.577 102.136L169.593 101.254Z" fill="#002885"/>
<path d="M173.663 106H173.355V103.592H173.705C174.069 104.908 174.732 105.566 175.693 105.566C176.066 105.566 176.36 105.477 176.575 105.3C176.799 105.113 176.911 104.833 176.911 104.46C176.911 104.32 176.888 104.203 176.841 104.11C176.804 104.007 176.724 103.905 176.603 103.802C176.491 103.69 176.328 103.564 176.113 103.424C175.908 103.284 175.632 103.107 175.287 102.892C174.97 102.696 174.694 102.514 174.461 102.346C174.228 102.178 174.032 102.01 173.873 101.842C173.714 101.665 173.593 101.478 173.509 101.282C173.434 101.086 173.397 100.857 173.397 100.596C173.397 100.279 173.448 99.9893 173.551 99.728C173.663 99.4573 173.812 99.2286 173.999 99.042C174.186 98.8553 174.405 98.7106 174.657 98.608C174.909 98.496 175.184 98.44 175.483 98.44C175.735 98.44 175.996 98.482 176.267 98.566C176.538 98.6406 176.776 98.7433 176.981 98.874L177.261 98.58H177.527V100.596H177.163C176.958 100.027 176.734 99.6206 176.491 99.378C176.248 99.1353 175.95 99.014 175.595 99.014C175.278 99.014 175.021 99.0979 174.825 99.2659C174.638 99.4339 174.545 99.6673 174.545 99.966C174.545 100.125 174.568 100.265 174.615 100.386C174.671 100.498 174.755 100.61 174.867 100.722C174.979 100.834 175.119 100.951 175.287 101.072C175.464 101.184 175.674 101.315 175.917 101.464C176.318 101.716 176.659 101.94 176.939 102.136C177.228 102.332 177.462 102.528 177.639 102.724C177.816 102.911 177.947 103.107 178.031 103.312C178.115 103.517 178.157 103.751 178.157 104.012C178.157 104.675 177.942 105.197 177.513 105.58C177.084 105.953 176.519 106.14 175.819 106.14C175.091 106.14 174.466 105.93 173.943 105.51L173.663 106Z" fill="#002885"/>
</svg>
