<svg id="Camada_1" data-name="Camada 1" xmlns="http://www.w3.org/2000/svg" viewBox="0 0 83.57 16.39"><defs><style>.cls-1{fill:#ffac00;}</style></defs><path class="cls-1" d="M41.76,12.48c0-.43-.23-.66-.23-.89a.25.25,0,0,1,.26-.27.25.25,0,0,1,.25.27c0,.23-.23.46-.23.89,0,.71.77.92.77,1.58a.79.79,0,1,1-1.58,0C41,13.4,41.76,13.19,41.76,12.48Z"/><path class="cls-1" d="M42.38,1.09A2.05,2.05,0,0,0,41.79,0a2,2,0,0,0-.59,1.09c-.05.61.44,1.07.59,2.28C41.93,2.16,42.42,1.7,42.38,1.09Z"/><path class="cls-1" d="M43.7,1.77a1.36,1.36,0,0,1,1.9.77.88.88,0,0,1-1.22,1.1c.55.08,1-.42.66-.89s-1.07-.3-1.5,0a2.89,2.89,0,0,0-1.08,3.21A3.11,3.11,0,0,1,43.7,1.77Z"/><path class="cls-1" d="M39.89,1.77A1.35,1.35,0,0,0,38,2.54a.88.88,0,0,0,1.22,1.1c-.55.08-1-.42-.67-.89s1.08-.3,1.51,0a2.89,2.89,0,0,1,1.08,3.21A3.1,3.1,0,0,0,39.89,1.77Z"/><path class="cls-1" d="M41.79,7.71c-.07-.63-.58-1.18-.32-1.62a.34.34,0,0,1,.32-.18h0a.34.34,0,0,1,.31.18c.26.44-.25,1-.31,1.62Z"/><path class="cls-1" d="M49.42,16c5.87.66,11.21-2,15.07-4.07C69.09,9.47,73.36,7,78,7.53a5.68,5.68,0,0,1,4.53,2.94A3.56,3.56,0,0,1,82,14.2a2.7,2.7,0,0,1-4.19.09c-.93-1.28.09-2.58.82-2.27.45.19.07.41,0,.71s0,.42.26.43c.4,0,.76-1-.1-1.37a1.42,1.42,0,0,0-1.71.75c-.74,1.34.27,3,1.87,3.34a3.88,3.88,0,0,0,3.9-6.14c-1-1.55-3.13-2.15-4.9-2.35-5-.57-9.16,1.19-13.84,3.66-5.06,2.65-9.43,5.4-14.59,4.81-4.75-.54-8.47-5.16-5.62-9.29,1.52-2.19,4.29-2.14,5.1-.81a1,1,0,0,1-.46,1.56c-.43.08-.15-.54-.52-.9a.5.5,0,0,0-.85.51,1.27,1.27,0,0,0,2.23.18,2,2,0,0,0-.78-2.61C46.7,3.21,44.22,4.15,43.08,6,40.44,10.23,43.19,15.27,49.42,16Z"/><path class="cls-1" d="M68.61,5.56a5.84,5.84,0,0,1,4,2.29c2.15,3.28-.25,6.73-3,6.31-1.69-.26-2.2-1.78-1.36-2.32s1.54.55.88,1c.94-.16.87-1.52-.21-1.78a1.66,1.66,0,0,0-2,1.58c-.06,1.49,1.25,2.32,2.61,2.46,3.73.37,6-4,3.78-7.17a6.83,6.83,0,0,0-4.8-2.55C59.85,4.16,55,13.64,48,13.25c-3.63-.19-6.14-2.51-4.6-5.89C41.47,11.44,45,13.51,48,13.64,56.11,14,61,4.4,68.61,5.56Z"/><path class="cls-1" d="M47.61,14.85c6.66,1.35,8.86-2.9,12.07-2.15,1.48.34,1.88,1.19,2.62,2.42.55.9,1.68,1.29,2.3.69s.23-1,0-.88a.3.3,0,1,1-.2-.56c.51-.21,1.13.31.81,1.08s-1.57,1.27-3,.64-1.82-1.49-3.08-1.86C55.72,13.18,53.34,16.38,47.61,14.85Z"/><path class="cls-1" d="M34.15,16c-5.87.66-11.21-2-15.06-4.07C14.48,9.47,10.22,7,5.61,7.53a5.68,5.68,0,0,0-4.54,2.94,3.54,3.54,0,0,0,.51,3.73,2.69,2.69,0,0,0,4.18.09C6.69,13,5.67,11.71,4.94,12c-.45.19-.07.41,0,.71s0,.42-.26.43c-.4,0-.75-1,.1-1.37a1.43,1.43,0,0,1,1.72.75c.74,1.34-.28,3-1.88,3.34A3.88,3.88,0,0,1,.77,9.74c1-1.55,3.13-2.15,4.9-2.35,5-.57,9.16,1.19,13.84,3.66,5.06,2.65,9.43,5.4,14.59,4.81,4.75-.54,8.48-5.16,5.62-9.29-1.51-2.19-4.29-2.14-5.1-.81a1,1,0,0,0,.46,1.56c.44.08.15-.54.52-.9a.5.5,0,0,1,.85.51,1.27,1.27,0,0,1-2.23.18A2,2,0,0,1,35,4.5c1.87-1.29,4.35-.35,5.49,1.47C43.13,10.23,40.38,15.27,34.15,16Z"/><path class="cls-1" d="M15,5.56a5.84,5.84,0,0,0-4,2.29c-2.16,3.28.25,6.73,3,6.31,1.69-.26,2.2-1.78,1.36-2.32s-1.53.55-.88,1c-.94-.16-.86-1.52.21-1.78a1.66,1.66,0,0,1,2,1.58c.06,1.49-1.25,2.32-2.6,2.46-3.74.37-6-4-3.79-7.17A6.87,6.87,0,0,1,15,5.37c8.68-1.21,13.51,8.27,20.56,7.88,3.63-.19,6.14-2.51,4.6-5.89,1.9,4.08-1.58,6.15-4.65,6.28C27.46,14,22.58,4.4,15,5.56Z"/><path class="cls-1" d="M36,14.85C29.3,16.2,27.11,12,23.89,12.7c-1.48.34-1.88,1.19-2.62,2.42-.55.9-1.67,1.29-2.3.69s-.23-1,0-.88a.3.3,0,1,0,.2-.56c-.51-.21-1.13.31-.81,1.08s1.57,1.27,3,.64,1.83-1.49,3.08-1.86C27.85,13.18,30.23,16.38,36,14.85Z"/></svg>